<svg width="28" height="28" viewBox="0 0 28 28" fill="none" xmlns="http://www.w3.org/2000/svg">
<path fill-rule="evenodd" clip-rule="evenodd" d="M18.9958 9.21591C19.2301 8.9816 19.2301 8.6017 18.9958 8.36739C18.7615 8.13307 18.3816 8.13307 18.1473 8.36739L13.6815 12.8332L9.21567 8.36739C8.98136 8.13307 8.60146 8.13307 8.36714 8.36739C8.13283 8.6017 8.13283 8.9816 8.36714 9.21591L12.8329 13.6817L8.36714 18.1475C8.13283 18.3818 8.13283 18.7617 8.36714 18.9961C8.60146 19.2304 8.98136 19.2304 9.21567 18.9961L13.6815 14.5302L18.1473 18.9961C18.3816 19.2304 18.7615 19.2304 18.9958 18.9961C19.2301 18.7617 19.2301 18.3818 18.9958 18.1475L14.53 13.6817L18.9958 9.21591Z" fill="#484964"/>
</svg>
