<svg width="37" height="37" viewBox="0 0 37 37" fill="none" xmlns="http://www.w3.org/2000/svg">
<rect x="0.642578" y="1.375" width="35" height="35" rx="17.5" stroke="white"/>
<path d="M17.8194 16.5169C16.698 16.5169 15.7828 17.432 15.7828 18.5534C15.7828 19.6749 16.698 20.59 17.8194 20.59C18.9408 20.59 19.8559 19.6749 19.8559 18.5534C19.8559 17.432 18.9408 16.5169 17.8194 16.5169ZM23.9275 18.5534C23.9275 17.7101 23.9351 16.8744 23.8877 16.0325C23.8404 15.0547 23.6173 14.1869 22.9023 13.4719C22.1858 12.7554 21.3195 12.5338 20.3417 12.4865C19.4984 12.4391 18.6627 12.4467 17.8209 12.4467C16.9776 12.4467 16.1419 12.4391 15.3 12.4865C14.3223 12.5338 13.4545 12.7569 12.7395 13.4719C12.0229 14.1885 11.8014 15.0547 11.754 16.0325C11.7067 16.8759 11.7143 17.7116 11.7143 18.5534C11.7143 19.3953 11.7067 20.2325 11.754 21.0743C11.8014 22.0521 12.0245 22.9199 12.7395 23.635C13.456 24.3515 14.3223 24.573 15.3 24.6204C16.1434 24.6678 16.9791 24.6601 17.8209 24.6601C18.6642 24.6601 19.4999 24.6678 20.3417 24.6204C21.3195 24.573 22.1873 24.35 22.9023 23.635C23.6189 22.9184 23.8404 22.0521 23.8877 21.0743C23.9366 20.2325 23.9275 19.3968 23.9275 18.5534ZM17.8194 21.687C16.0853 21.687 14.6859 20.2875 14.6859 18.5534C14.6859 16.8194 16.0853 15.4199 17.8194 15.4199C19.5534 15.4199 20.9529 16.8194 20.9529 18.5534C20.9529 20.2875 19.5534 21.687 17.8194 21.687ZM21.0812 16.0234C20.6763 16.0234 20.3494 15.6964 20.3494 15.2915C20.3494 14.8867 20.6763 14.5597 21.0812 14.5597C21.4861 14.5597 21.813 14.8867 21.813 15.2915C21.8131 15.3877 21.7943 15.4829 21.7576 15.5717C21.7208 15.6606 21.6669 15.7413 21.5989 15.8093C21.531 15.8773 21.4502 15.9312 21.3614 15.9679C21.2726 16.0046 21.1773 16.0235 21.0812 16.0234Z" fill="white"/>
</svg>
