<svg width="36" height="37" viewBox="0 0 36 37" fill="none" xmlns="http://www.w3.org/2000/svg">
<rect x="0.5" y="1.375" width="35" height="35" rx="17.5" stroke="white"/>
<path fill-rule="evenodd" clip-rule="evenodd" d="M16.9897 16.2833H19.3772V17.4726C19.7212 16.7886 20.6032 16.174 21.9281 16.174C24.468 16.174 25.071 17.5356 25.071 20.0337V24.6604H22.4996V20.6027C22.4996 19.18 22.1557 18.3777 21.2801 18.3777C20.0657 18.3777 19.5611 19.2424 19.5611 20.602V24.6604H16.9897V16.2833ZM12.5803 24.5511H15.1517V16.174H12.5803V24.5511ZM15.5201 13.4425C15.5202 13.658 15.4774 13.8714 15.3943 14.0703C15.3112 14.2692 15.1894 14.4496 15.036 14.6009C14.7251 14.9099 14.3043 15.0829 13.866 15.0818C13.4285 15.0815 13.0086 14.909 12.6973 14.6016C12.5444 14.4497 12.423 14.2691 12.3401 14.0702C12.2571 13.8713 12.2142 13.658 12.2139 13.4425C12.2139 13.0073 12.3874 12.5907 12.6979 12.2834C13.009 11.9756 13.429 11.803 13.8667 11.8032C14.3051 11.8032 14.7255 11.9762 15.036 12.2834C15.3459 12.5907 15.5201 13.0073 15.5201 13.4425Z" fill="white"/>
</svg>
