<svg width="18" height="19" viewBox="0 0 18 19" fill="none" xmlns="http://www.w3.org/2000/svg">
<path d="M9 5.375C8.44374 5.375 7.89997 5.53995 7.43746 5.84899C6.97495 6.15803 6.61446 6.59729 6.40159 7.1112C6.18872 7.62512 6.13302 8.19062 6.24154 8.73619C6.35006 9.28176 6.61793 9.7829 7.01126 10.1762C7.4046 10.5696 7.90574 10.8374 8.45131 10.946C8.99688 11.0545 9.56238 10.9988 10.0763 10.7859C10.5902 10.573 11.0295 10.2126 11.3385 9.75004C11.6475 9.28753 11.8125 8.74376 11.8125 8.1875C11.8125 7.44158 11.5162 6.72621 10.9887 6.19876C10.4613 5.67132 9.74592 5.375 9 5.375ZM9 9.875C8.66624 9.875 8.33998 9.77603 8.06248 9.5906C7.78497 9.40518 7.56868 9.14163 7.44095 8.83328C7.31323 8.52493 7.27981 8.18563 7.34492 7.85828C7.41004 7.53094 7.57076 7.23026 7.80676 6.99426C8.04276 6.75826 8.34344 6.59754 8.67078 6.53242C8.99813 6.46731 9.33743 6.50073 9.64578 6.62845C9.95413 6.75618 10.2177 6.97247 10.4031 7.24998C10.5885 7.52748 10.6875 7.85374 10.6875 8.1875C10.6875 8.63505 10.5097 9.06428 10.1932 9.38074C9.87678 9.69721 9.44755 9.875 9 9.875ZM9 2C7.35954 2.00186 5.78681 2.65435 4.62683 3.81433C3.46685 4.97431 2.81436 6.54704 2.8125 8.1875C2.8125 10.3953 3.83273 12.7353 5.76562 14.9551C6.63414 15.9581 7.61165 16.8614 8.68008 17.648C8.77466 17.7143 8.88734 17.7498 9.00281 17.7498C9.11829 17.7498 9.23097 17.7143 9.32555 17.648C10.392 16.861 11.3676 15.9578 12.2344 14.9551C14.1645 12.7353 15.1875 10.3953 15.1875 8.1875C15.1856 6.54704 14.5331 4.97431 13.3732 3.81433C12.2132 2.65435 10.6405 2.00186 9 2ZM9 16.4844C7.83773 15.5703 3.9375 12.2129 3.9375 8.1875C3.9375 6.84484 4.47087 5.55717 5.42027 4.60777C6.36967 3.65837 7.65734 3.125 9 3.125C10.3427 3.125 11.6303 3.65837 12.5797 4.60777C13.5291 5.55717 14.0625 6.84484 14.0625 8.1875C14.0625 12.2115 10.1623 15.5703 9 16.4844Z" fill="white"/>
</svg>
