<svg width="18" height="19" viewBox="0 0 18 19" fill="none" xmlns="http://www.w3.org/2000/svg">
<path fill-rule="evenodd" clip-rule="evenodd" d="M3 6.44646V13.3036C3 13.7583 3.18061 14.1943 3.5021 14.5158C3.82359 14.8373 4.25963 15.0179 4.71429 15.0179H13.2857C13.7404 15.0179 14.1764 14.8373 14.4979 14.5158C14.8194 14.1943 15 13.7583 15 13.3036V6.44646C15 5.99181 14.8194 5.55577 14.4979 5.23428C14.1764 4.91279 13.7404 4.73218 13.2857 4.73218H4.71429C4.25963 4.73218 3.82359 4.91279 3.5021 5.23428C3.18061 5.55577 3 5.99181 3 6.44646Z" stroke="white" stroke-width="0.857143" stroke-linecap="round" stroke-linejoin="round"/>
<path d="M4.71436 7.30371L9.00007 9.87514L13.2858 7.30371" stroke="white" stroke-width="0.857143" stroke-linecap="round" stroke-linejoin="round"/>
</svg>
