<svg width="28" height="28" viewBox="0 0 28 28" fill="none" xmlns="http://www.w3.org/2000/svg">
<path d="M6.99967 8.16602H12.833C13.1424 8.16602 13.4392 8.28893 13.658 8.50772C13.8768 8.72652 13.9997 9.02326 13.9997 9.33268C13.9997 9.6421 13.8768 9.93885 13.658 10.1576C13.4392 10.3764 13.1424 10.4993 12.833 10.4993H6.99967C6.69026 10.4993 6.39351 10.3764 6.17472 10.1576C5.95592 9.93885 5.83301 9.6421 5.83301 9.33268C5.83301 9.02326 5.95592 8.72652 6.17472 8.50772C6.39351 8.28893 6.69026 8.16602 6.99967 8.16602ZM15.1663 17.4993H20.9997C21.3091 17.4993 21.6058 17.6223 21.8246 17.8411C22.0434 18.0599 22.1663 18.3566 22.1663 18.666C22.1663 18.9754 22.0434 19.2722 21.8246 19.491C21.6058 19.7098 21.3091 19.8327 20.9997 19.8327H15.1663C14.8569 19.8327 14.5602 19.7098 14.3414 19.491C14.1226 19.2722 13.9997 18.9754 13.9997 18.666C13.9997 18.3566 14.1226 18.0599 14.3414 17.8411C14.5602 17.6223 14.8569 17.4993 15.1663 17.4993ZM6.99967 12.8327H20.9997C21.3091 12.8327 21.6058 12.9556 21.8246 13.1744C22.0434 13.3932 22.1663 13.6899 22.1663 13.9993C22.1663 14.3088 22.0434 14.6055 21.8246 14.8243C21.6058 15.0431 21.3091 15.166 20.9997 15.166H6.99967C6.69026 15.166 6.39351 15.0431 6.17472 14.8243C5.95592 14.6055 5.83301 14.3088 5.83301 13.9993C5.83301 13.6899 5.95592 13.3932 6.17472 13.1744C6.39351 12.9556 6.69026 12.8327 6.99967 12.8327Z" fill="#7166FF"/>
</svg>
