<svg width="34" height="34" viewBox="0 0 34 34" fill="none" xmlns="http://www.w3.org/2000/svg">
<path d="M8.49967 9.91602H15.583C15.9587 9.91602 16.3191 10.0653 16.5847 10.3309C16.8504 10.5966 16.9997 10.957 16.9997 11.3327C16.9997 11.7084 16.8504 12.0687 16.5847 12.3344C16.3191 12.6001 15.9587 12.7493 15.583 12.7493H8.49967C8.12395 12.7493 7.76362 12.6001 7.49794 12.3344C7.23226 12.0687 7.08301 11.7084 7.08301 11.3327C7.08301 10.957 7.23226 10.5966 7.49794 10.3309C7.76362 10.0653 8.12395 9.91602 8.49967 9.91602ZM18.4163 21.2493H25.4997C25.8754 21.2493 26.2357 21.3986 26.5014 21.6643C26.7671 21.93 26.9163 22.2903 26.9163 22.666C26.9163 23.0417 26.7671 23.4021 26.5014 23.6677C26.2357 23.9334 25.8754 24.0827 25.4997 24.0827H18.4163C18.0406 24.0827 17.6803 23.9334 17.4146 23.6677C17.1489 23.4021 16.9997 23.0417 16.9997 22.666C16.9997 22.2903 17.1489 21.93 17.4146 21.6643C17.6803 21.3986 18.0406 21.2493 18.4163 21.2493ZM8.49967 15.5827H25.4997C25.8754 15.5827 26.2357 15.7319 26.5014 15.9976C26.7671 16.2633 26.9163 16.6236 26.9163 16.9993C26.9163 17.3751 26.7671 17.7354 26.5014 18.0011C26.2357 18.2668 25.8754 18.416 25.4997 18.416H8.49967C8.12395 18.416 7.76362 18.2668 7.49794 18.0011C7.23226 17.7354 7.08301 17.3751 7.08301 16.9993C7.08301 16.6236 7.23226 16.2633 7.49794 15.9976C7.76362 15.7319 8.12395 15.5827 8.49967 15.5827Z" fill="black"/>
</svg>
