<svg width="18" height="19" viewBox="0 0 18 19" fill="none" xmlns="http://www.w3.org/2000/svg">
<path d="M15.5806 12.1461L12.259 10.6576C12.1085 10.5931 11.9443 10.5671 11.7812 10.5821C11.6182 10.5971 11.4615 10.6525 11.3252 10.7433C11.3114 10.7522 11.2983 10.7621 11.2859 10.7729L9.54985 12.2494C9.53184 12.2593 9.51179 12.2647 9.49129 12.2655C9.47078 12.2662 9.45039 12.2622 9.43173 12.2537C8.31587 11.7151 7.15993 10.5662 6.61923 9.46576C6.61022 9.44737 6.60554 9.42717 6.60554 9.4067C6.60554 9.38622 6.61022 9.36602 6.61923 9.34764L8.10071 7.58982C8.11134 7.57682 8.1212 7.5632 8.13024 7.54904C8.21981 7.41229 8.27391 7.25538 8.28766 7.09248C8.30141 6.92958 8.27437 6.76583 8.20899 6.61599L6.73102 3.30006C6.64709 3.10431 6.50194 2.94107 6.31735 2.83483C6.13276 2.72859 5.91869 2.68508 5.70727 2.71084C4.78845 2.83163 3.94504 3.28286 3.33466 3.98019C2.72429 4.67752 2.38871 5.57325 2.39063 6.49998C2.39063 12.0054 6.86954 16.4844 12.375 16.4844C13.3017 16.4861 14.1973 16.1505 14.8946 15.5401C15.5919 14.9298 16.0432 14.0865 16.1641 13.1677C16.1899 12.9573 16.1469 12.7442 16.0418 12.5601C15.9366 12.376 15.7749 12.2308 15.5806 12.1461ZM12.375 15.6406C7.33501 15.6406 3.23438 11.54 3.23438 6.49998C3.23203 5.77852 3.49243 5.08089 3.96693 4.53742C4.44143 3.99396 5.09756 3.64184 5.81274 3.54685H5.82891C5.85725 3.54738 5.88476 3.55646 5.90785 3.5729C5.93094 3.58933 5.94852 3.61236 5.95829 3.63896L7.44188 6.95139C7.45034 6.9698 7.45473 6.98983 7.45473 7.0101C7.45473 7.03036 7.45034 7.05039 7.44188 7.06881L5.95759 8.83084C5.94651 8.84342 5.93641 8.85681 5.92735 8.87092C5.83447 9.01271 5.77978 9.17608 5.76857 9.34521C5.75736 9.51434 5.79001 9.6835 5.86337 9.83631C6.48704 11.1132 7.77376 12.3901 9.0647 13.0137C9.2184 13.0867 9.38838 13.1185 9.55807 13.1062C9.72775 13.0939 9.89135 13.0378 10.0329 12.9434C10.0463 12.9343 10.0596 12.9244 10.0723 12.9139L11.8076 11.4373C11.8247 11.4281 11.8437 11.4227 11.8631 11.4215C11.8825 11.4203 11.9019 11.4233 11.9201 11.4303L15.2424 12.9188C15.2695 12.9304 15.2923 12.9502 15.3076 12.9754C15.3228 13.0006 15.3298 13.03 15.3274 13.0594C15.2329 13.7749 14.8812 14.4316 14.3378 14.9066C13.7945 15.3816 13.0967 15.6425 12.375 15.6406Z" fill="white"/>
</svg>
