<svg width="37" height="37" viewBox="0 0 37 37" fill="none" xmlns="http://www.w3.org/2000/svg">
<rect x="1.21484" y="1.375" width="35" height="35" rx="17.5" stroke="white"/>
<path d="M25.8168 14.5196C25.3092 14.7323 24.7568 14.8855 24.1878 14.9451C24.7786 14.6041 25.2209 14.0653 25.432 13.4298C24.8776 13.7503 24.2704 13.975 23.6371 14.094C23.3724 13.819 23.0523 13.6 22.6967 13.4505C22.3411 13.301 21.9576 13.2243 21.5702 13.2251C20.0026 13.2251 18.7419 14.4599 18.7419 15.9752C18.7419 16.188 18.7684 16.4008 18.8116 16.6055C16.4643 16.4862 14.3709 15.3965 12.9791 13.7281C12.7255 14.149 12.5926 14.6282 12.5943 15.116C12.5943 16.0703 13.0936 16.9118 13.855 17.4067C13.4063 17.3895 12.9681 17.2696 12.576 17.0569V17.0907C12.576 18.4271 13.5481 19.5345 14.8436 19.7892C14.6004 19.8506 14.3501 19.882 14.0988 19.8827C13.9147 19.8827 13.7405 19.865 13.5647 19.8408C13.923 20.9305 14.9664 21.722 16.2089 21.7478C15.2368 22.4877 14.0192 22.923 12.6971 22.923C12.4599 22.923 12.2409 22.9149 12.0137 22.8891C13.2677 23.6709 14.7557 24.1223 16.3582 24.1223C21.5602 24.1223 24.4068 19.9343 24.4068 16.2992C24.4068 16.1799 24.4068 16.0606 24.3985 15.9413C24.9492 15.5496 25.432 15.0644 25.8168 14.5196Z" fill="white"/>
</svg>
