<svg width="1744" height="665" viewBox="0 0 1744 665" fill="none" xmlns="http://www.w3.org/2000/svg">
<g opacity="0.25">
<circle cx="1497.45" cy="115.356" r="4.12556" fill="#7854F7"/>
<circle cx="1557.96" cy="115.356" r="4.12556" fill="#7854F7"/>
<circle cx="1618.47" cy="115.356" r="4.12556" fill="#7854F7"/>
<circle cx="1678.98" cy="115.356" r="4.12556" fill="#7854F7"/>
<circle cx="1739.49" cy="115.356" r="4.12556" fill="#7854F7"/>
<circle cx="1497.45" cy="175.864" r="4.12556" fill="#7854F7"/>
<circle cx="1557.96" cy="175.864" r="4.12556" fill="#7854F7"/>
<circle cx="1618.47" cy="175.864" r="4.12556" fill="#7854F7"/>
<circle cx="1678.98" cy="175.864" r="4.12556" fill="#7854F7"/>
<circle cx="1739.49" cy="175.864" r="4.12556" fill="#7854F7"/>
<circle cx="1497.45" cy="236.372" r="4.12556" fill="#7854F7"/>
<circle cx="1557.96" cy="236.372" r="4.12556" fill="#7854F7"/>
<circle cx="1618.47" cy="236.372" r="4.12556" fill="#7854F7"/>
<circle cx="1678.98" cy="236.372" r="4.12556" fill="#7854F7"/>
<circle cx="1739.49" cy="236.372" r="4.12556" fill="#7854F7"/>
<circle cx="1497.45" cy="296.88" r="4.12556" fill="#7854F7"/>
<circle cx="1557.96" cy="296.88" r="4.12556" fill="#7854F7"/>
<circle cx="1618.47" cy="296.88" r="4.12556" fill="#7854F7"/>
<circle cx="1678.98" cy="296.88" r="4.12556" fill="#7854F7"/>
<circle cx="1739.49" cy="296.88" r="4.12556" fill="#7854F7"/>
<circle cx="1497.45" cy="357.388" r="4.12556" fill="#7854F7"/>
<circle cx="1557.96" cy="357.388" r="4.12556" fill="#7854F7"/>
<circle cx="1618.47" cy="357.388" r="4.12556" fill="#7854F7"/>
<circle cx="1678.98" cy="357.388" r="4.12556" fill="#7854F7"/>
<circle cx="1739.49" cy="357.388" r="4.12556" fill="#7854F7"/>
<circle cx="1497.45" cy="417.897" r="4.12556" fill="#7854F7"/>
<circle cx="1557.96" cy="417.897" r="4.12556" fill="#7854F7"/>
<circle cx="1618.47" cy="417.897" r="4.12556" fill="#7854F7"/>
<circle cx="1678.98" cy="417.897" r="4.12556" fill="#7854F7"/>
<circle cx="1739.49" cy="417.897" r="4.12556" fill="#7854F7"/>
<circle cx="1497.45" cy="478.405" r="4.12556" fill="#7854F7"/>
<circle cx="1557.96" cy="478.405" r="4.12556" fill="#7854F7"/>
<circle cx="1618.47" cy="478.405" r="4.12556" fill="#7854F7"/>
<circle cx="1678.98" cy="478.405" r="4.12556" fill="#7854F7"/>
<circle cx="1739.49" cy="478.405" r="4.12556" fill="#7854F7"/>
<circle cx="1497.45" cy="538.913" r="4.12556" fill="#7854F7"/>
<circle cx="1557.96" cy="538.913" r="4.12556" fill="#7854F7"/>
<circle cx="1618.47" cy="538.913" r="4.12556" fill="#7854F7"/>
<circle cx="1678.98" cy="538.913" r="4.12556" fill="#7854F7"/>
<circle cx="1739.49" cy="538.913" r="4.12556" fill="#7854F7"/>
<circle cx="1497.45" cy="599.421" r="4.12556" fill="#7854F7"/>
<circle cx="1557.96" cy="599.421" r="4.12556" fill="#7854F7"/>
<circle cx="1618.47" cy="599.421" r="4.12556" fill="#7854F7"/>
<circle cx="1678.98" cy="599.421" r="4.12556" fill="#7854F7"/>
<circle cx="1739.49" cy="599.421" r="4.12556" fill="#7854F7"/>
<circle cx="1497.45" cy="659.93" r="4.12556" fill="#7854F7"/>
<circle cx="1557.96" cy="659.93" r="4.12556" fill="#7854F7"/>
<circle cx="1618.47" cy="659.93" r="4.12556" fill="#7854F7"/>
<circle cx="1678.98" cy="659.93" r="4.12556" fill="#7854F7"/>
<circle cx="1739.49" cy="659.93" r="4.12556" fill="#7854F7"/>
</g>
<g opacity="0.25">
<circle cx="1436.7" cy="4.1258" r="4.12556" transform="rotate(90 1436.7 4.1258)" fill="#29AAF3"/>
<circle cx="1436.7" cy="64.6339" r="4.12556" transform="rotate(90 1436.7 64.6339)" fill="#29AAF3"/>
<circle cx="1436.7" cy="125.142" r="4.12556" transform="rotate(90 1436.7 125.142)" fill="#29AAF3"/>
<circle cx="1436.7" cy="185.65" r="4.12556" transform="rotate(90 1436.7 185.65)" fill="#29AAF3"/>
<circle cx="1436.7" cy="246.158" r="4.12556" transform="rotate(90 1436.7 246.158)" fill="#29AAF3"/>
<circle cx="1376.19" cy="4.12556" r="4.12556" transform="rotate(90 1376.19 4.12556)" fill="#29AAF3"/>
<circle cx="1376.19" cy="64.6339" r="4.12556" transform="rotate(90 1376.19 64.6339)" fill="#29AAF3"/>
<circle cx="1376.19" cy="125.142" r="4.12556" transform="rotate(90 1376.19 125.142)" fill="#29AAF3"/>
<circle cx="1376.19" cy="185.65" r="4.12556" transform="rotate(90 1376.19 185.65)" fill="#29AAF3"/>
<circle cx="1376.19" cy="246.158" r="4.12556" transform="rotate(90 1376.19 246.158)" fill="#29AAF3"/>
<circle cx="1315.68" cy="4.12556" r="4.12556" transform="rotate(90 1315.68 4.12556)" fill="#29AAF3"/>
<circle cx="1315.68" cy="64.6339" r="4.12556" transform="rotate(90 1315.68 64.6339)" fill="#29AAF3"/>
<circle cx="1315.68" cy="125.142" r="4.12556" transform="rotate(90 1315.68 125.142)" fill="#29AAF3"/>
<circle cx="1315.68" cy="185.65" r="4.12556" transform="rotate(90 1315.68 185.65)" fill="#29AAF3"/>
<circle cx="1315.68" cy="246.158" r="4.12556" transform="rotate(90 1315.68 246.158)" fill="#29AAF3"/>
<circle cx="1255.18" cy="4.12556" r="4.12556" transform="rotate(90 1255.18 4.12556)" fill="#29AAF3"/>
<circle cx="1255.18" cy="64.6339" r="4.12556" transform="rotate(90 1255.18 64.6339)" fill="#29AAF3"/>
<circle cx="1255.18" cy="125.142" r="4.12556" transform="rotate(90 1255.18 125.142)" fill="#29AAF3"/>
<circle cx="1255.18" cy="185.65" r="4.12556" transform="rotate(90 1255.18 185.65)" fill="#29AAF3"/>
<circle cx="1255.18" cy="246.158" r="4.12556" transform="rotate(90 1255.18 246.158)" fill="#29AAF3"/>
<circle cx="1194.67" cy="4.12556" r="4.12556" transform="rotate(90 1194.67 4.12556)" fill="#29AAF3"/>
<circle cx="1194.67" cy="64.6339" r="4.12556" transform="rotate(90 1194.67 64.6339)" fill="#29AAF3"/>
<circle cx="1194.67" cy="125.142" r="4.12556" transform="rotate(90 1194.67 125.142)" fill="#29AAF3"/>
<circle cx="1194.67" cy="185.65" r="4.12556" transform="rotate(90 1194.67 185.65)" fill="#29AAF3"/>
<circle cx="1194.67" cy="246.158" r="4.12556" transform="rotate(90 1194.67 246.158)" fill="#29AAF3"/>
<circle cx="1134.16" cy="4.12556" r="4.12556" transform="rotate(90 1134.16 4.12556)" fill="#29AAF3"/>
<circle cx="1134.16" cy="64.6339" r="4.12556" transform="rotate(90 1134.16 64.6339)" fill="#29AAF3"/>
<circle cx="1134.16" cy="125.142" r="4.12556" transform="rotate(90 1134.16 125.142)" fill="#29AAF3"/>
<circle cx="1134.16" cy="185.65" r="4.12556" transform="rotate(90 1134.16 185.65)" fill="#29AAF3"/>
<circle cx="1134.16" cy="246.158" r="4.12556" transform="rotate(90 1134.16 246.158)" fill="#29AAF3"/>
<circle cx="1073.65" cy="4.12556" r="4.12556" transform="rotate(90 1073.65 4.12556)" fill="#29AAF3"/>
<circle cx="1073.65" cy="64.6339" r="4.12556" transform="rotate(90 1073.65 64.6339)" fill="#29AAF3"/>
<circle cx="1073.65" cy="125.142" r="4.12556" transform="rotate(90 1073.65 125.142)" fill="#29AAF3"/>
<circle cx="1073.65" cy="185.65" r="4.12556" transform="rotate(90 1073.65 185.65)" fill="#29AAF3"/>
<circle cx="1073.65" cy="246.158" r="4.12556" transform="rotate(90 1073.65 246.158)" fill="#29AAF3"/>
<circle cx="1013.14" cy="4.12556" r="4.12556" transform="rotate(90 1013.14 4.12556)" fill="#29AAF3"/>
<circle cx="1013.14" cy="64.6339" r="4.12556" transform="rotate(90 1013.14 64.6339)" fill="#29AAF3"/>
<circle cx="1013.14" cy="125.142" r="4.12556" transform="rotate(90 1013.14 125.142)" fill="#29AAF3"/>
<circle cx="1013.14" cy="185.65" r="4.12556" transform="rotate(90 1013.14 185.65)" fill="#29AAF3"/>
<circle cx="1013.14" cy="246.158" r="4.12556" transform="rotate(90 1013.14 246.158)" fill="#29AAF3"/>
<circle cx="952.634" cy="4.12556" r="4.12556" transform="rotate(90 952.634 4.12556)" fill="#29AAF3"/>
<circle cx="952.634" cy="64.6339" r="4.12556" transform="rotate(90 952.634 64.6339)" fill="#29AAF3"/>
<circle cx="952.634" cy="125.142" r="4.12556" transform="rotate(90 952.634 125.142)" fill="#29AAF3"/>
<circle cx="952.634" cy="185.65" r="4.12556" transform="rotate(90 952.634 185.65)" fill="#29AAF3"/>
<circle cx="952.634" cy="246.158" r="4.12556" transform="rotate(90 952.634 246.158)" fill="#29AAF3"/>
<circle cx="892.125" cy="4.12556" r="4.12556" transform="rotate(90 892.125 4.12556)" fill="#29AAF3"/>
<circle cx="892.125" cy="64.6339" r="4.12556" transform="rotate(90 892.125 64.6339)" fill="#29AAF3"/>
<circle cx="892.125" cy="125.142" r="4.12556" transform="rotate(90 892.125 125.142)" fill="#29AAF3"/>
<circle cx="892.125" cy="185.65" r="4.12556" transform="rotate(90 892.125 185.65)" fill="#29AAF3"/>
<circle cx="892.125" cy="246.159" r="4.12556" transform="rotate(90 892.125 246.159)" fill="#29AAF3"/>
</g>
<rect x="1546.72" y="379.353" width="98.1275" height="68.4611" rx="31.3552" fill="#EF4358"/>
<path d="M1594.88 431.272C1595.4 431.55 1596.05 431.548 1596.58 431.27C1610.76 423.651 1611.77 408.764 1611.75 404.531C1611.75 404.191 1611.65 403.859 1611.46 403.575C1611.28 403.291 1611.01 403.068 1610.7 402.933L1596.45 396.62C1596.22 396.52 1595.98 396.468 1595.73 396.469C1595.48 396.469 1595.23 396.521 1595.01 396.621L1580.86 402.934C1580.55 403.07 1580.29 403.29 1580.1 403.57C1579.91 403.85 1579.81 404.178 1579.81 404.514C1579.75 408.725 1580.6 423.644 1594.88 431.272ZM1589.9 410.982L1593.96 415.042L1601.56 407.442L1604.06 409.945L1593.96 420.048L1587.4 413.486L1589.9 410.982V410.982Z" fill="white"/>
<rect y="246" width="75.6353" height="75.6353" rx="37.7902" fill="#FFBA49"/>
<path d="M44.518 274.5C45.9488 277.574 45.623 281.201 44.0505 284.147C42.7188 286.542 40.8063 288.567 39.1771 290.792C38.4688 291.783 37.7605 292.846 37.2363 293.993C37.0521 294.376 36.9246 294.772 36.783 295.169C36.6413 295.566 36.5138 295.962 36.3863 296.359C36.2588 296.727 36.103 297.167 35.6355 297.167C35.083 297.167 34.9271 296.543 34.8138 296.118C34.4738 295.084 34.1338 294.092 33.6096 293.143C33.0146 292.024 32.2638 290.99 31.4988 289.984L44.518 274.5ZM31.5555 277.928L26.8805 283.482C27.7446 285.309 29.0338 286.867 30.2663 288.426C30.5638 288.78 30.8613 289.148 31.1446 289.531L37.0521 282.532L36.9955 282.547C34.9271 283.255 32.6321 282.207 31.8105 280.167C31.6971 279.926 31.6121 279.642 31.5555 279.359C31.4775 278.89 31.4775 278.411 31.5555 277.942V277.928ZM27.9571 272.545L27.943 272.559C25.648 275.463 25.2513 279.501 26.6255 282.915L32.278 276.2L32.2071 276.129L27.9571 272.545ZM38.7805 269.343L34.2188 274.741L34.2755 274.727C36.1738 274.075 38.2988 274.897 39.2621 276.625C39.4746 277.022 39.6446 277.447 39.7013 277.872C39.7863 278.41 39.8146 278.792 39.7155 279.317V279.331L44.2488 273.947C43.0638 271.793 41.1196 270.157 38.7946 269.357L38.7805 269.343ZM32.6463 275.761L38.1855 269.173L38.1288 269.159C37.3071 268.947 36.4713 268.833 35.6355 268.833C32.8446 268.833 30.2096 270.037 28.3396 272.106L28.3113 272.12L32.6463 275.761Z" fill="white"/>
</svg>
