<svg width="1920" height="1140" viewBox="0 0 1920 1140" fill="none" xmlns="http://www.w3.org/2000/svg">
<path d="M0 0C0 0 584.914 30.8108 960 30.8108C1335.09 30.8108 1920 0 1920 0V1140C1920 1140 1335.09 1109.19 960 1109.19C584.914 1109.19 0 1140 0 1140L0 0Z" fill="#191617"/>
<ellipse cx="442.178" cy="844.636" rx="3.3853" ry="3.52358" transform="rotate(-180 442.178 844.636)" fill="#70C217"/>
<ellipse cx="392.528" cy="844.636" rx="3.3853" ry="3.52358" transform="rotate(-180 392.528 844.636)" fill="#70C217"/>
<ellipse cx="342.876" cy="844.636" rx="3.3853" ry="3.52358" transform="rotate(-180 342.876 844.636)" fill="#70C217"/>
<ellipse cx="293.225" cy="844.636" rx="3.3853" ry="3.52358" transform="rotate(-180 293.225 844.636)" fill="#70C217"/>
<ellipse cx="243.574" cy="844.636" rx="3.3853" ry="3.52358" transform="rotate(-180 243.574 844.636)" fill="#70C217"/>
<ellipse cx="442.179" cy="792.957" rx="3.3853" ry="3.52358" transform="rotate(-180 442.179 792.957)" fill="#70C217"/>
<ellipse cx="392.528" cy="792.957" rx="3.3853" ry="3.52358" transform="rotate(-180 392.528 792.957)" fill="#70C217"/>
<ellipse cx="342.876" cy="792.957" rx="3.3853" ry="3.52358" transform="rotate(-180 342.876 792.957)" fill="#70C217"/>
<ellipse cx="293.225" cy="792.957" rx="3.3853" ry="3.52358" transform="rotate(-180 293.225 792.957)" fill="#70C217"/>
<ellipse cx="243.574" cy="792.957" rx="3.3853" ry="3.52358" transform="rotate(-180 243.574 792.957)" fill="#70C217"/>
<ellipse cx="442.179" cy="741.278" rx="3.3853" ry="3.52358" transform="rotate(-180 442.179 741.278)" fill="#70C217"/>
<ellipse cx="392.528" cy="741.278" rx="3.3853" ry="3.52358" transform="rotate(-180 392.528 741.278)" fill="#70C217"/>
<ellipse cx="342.876" cy="741.278" rx="3.3853" ry="3.52358" transform="rotate(-180 342.876 741.278)" fill="#70C217"/>
<ellipse cx="293.225" cy="741.278" rx="3.3853" ry="3.52358" transform="rotate(-180 293.225 741.278)" fill="#70C217"/>
<ellipse cx="243.574" cy="741.278" rx="3.3853" ry="3.52358" transform="rotate(-180 243.574 741.278)" fill="#70C217"/>
<ellipse cx="442.179" cy="689.599" rx="3.3853" ry="3.52358" transform="rotate(-180 442.179 689.599)" fill="#70C217"/>
<ellipse cx="392.528" cy="689.599" rx="3.3853" ry="3.52358" transform="rotate(-180 392.528 689.599)" fill="#70C217"/>
<ellipse cx="342.876" cy="689.599" rx="3.3853" ry="3.52358" transform="rotate(-180 342.876 689.599)" fill="#70C217"/>
<ellipse cx="293.225" cy="689.599" rx="3.3853" ry="3.52358" transform="rotate(-180 293.225 689.599)" fill="#70C217"/>
<ellipse cx="243.574" cy="689.599" rx="3.3853" ry="3.52358" transform="rotate(-180 243.574 689.599)" fill="#70C217"/>
<ellipse cx="442.179" cy="637.92" rx="3.3853" ry="3.52358" transform="rotate(-180 442.179 637.92)" fill="#70C217"/>
<ellipse cx="392.528" cy="637.92" rx="3.3853" ry="3.52358" transform="rotate(-180 392.528 637.92)" fill="#70C217"/>
<ellipse cx="342.876" cy="637.92" rx="3.3853" ry="3.52358" transform="rotate(-180 342.876 637.92)" fill="#70C217"/>
<ellipse cx="293.225" cy="637.92" rx="3.3853" ry="3.52358" transform="rotate(-180 293.225 637.92)" fill="#70C217"/>
<ellipse cx="243.574" cy="637.92" rx="3.3853" ry="3.52358" transform="rotate(-180 243.574 637.92)" fill="#70C217"/>
<ellipse cx="442.179" cy="586.24" rx="3.3853" ry="3.52358" transform="rotate(-180 442.179 586.24)" fill="#70C217"/>
<ellipse cx="392.528" cy="586.24" rx="3.3853" ry="3.52358" transform="rotate(-180 392.528 586.24)" fill="#70C217"/>
<ellipse cx="342.876" cy="586.24" rx="3.3853" ry="3.52358" transform="rotate(-180 342.876 586.24)" fill="#70C217"/>
<ellipse cx="293.225" cy="586.24" rx="3.3853" ry="3.52358" transform="rotate(-180 293.225 586.24)" fill="#70C217"/>
<ellipse cx="243.574" cy="586.24" rx="3.3853" ry="3.52358" transform="rotate(-180 243.574 586.24)" fill="#70C217"/>
<ellipse cx="442.179" cy="534.561" rx="3.3853" ry="3.52358" transform="rotate(-180 442.179 534.561)" fill="#70C217"/>
<ellipse cx="392.528" cy="534.561" rx="3.3853" ry="3.52358" transform="rotate(-180 392.528 534.561)" fill="#70C217"/>
<ellipse cx="342.876" cy="534.561" rx="3.3853" ry="3.52358" transform="rotate(-180 342.876 534.561)" fill="#70C217"/>
<ellipse cx="293.225" cy="534.561" rx="3.3853" ry="3.52358" transform="rotate(-180 293.225 534.561)" fill="#70C217"/>
<ellipse cx="243.574" cy="534.561" rx="3.3853" ry="3.52358" transform="rotate(-180 243.574 534.561)" fill="#70C217"/>
<ellipse cx="442.179" cy="482.882" rx="3.3853" ry="3.52358" transform="rotate(-180 442.179 482.882)" fill="#70C217"/>
<ellipse cx="392.528" cy="482.882" rx="3.3853" ry="3.52358" transform="rotate(-180 392.528 482.882)" fill="#70C217"/>
<ellipse cx="342.876" cy="482.882" rx="3.3853" ry="3.52358" transform="rotate(-180 342.876 482.882)" fill="#70C217"/>
<ellipse cx="293.225" cy="482.882" rx="3.3853" ry="3.52358" transform="rotate(-180 293.225 482.882)" fill="#70C217"/>
<ellipse cx="243.574" cy="482.882" rx="3.3853" ry="3.52358" transform="rotate(-180 243.574 482.882)" fill="#70C217"/>
<ellipse cx="442.179" cy="431.203" rx="3.3853" ry="3.52358" transform="rotate(-180 442.179 431.203)" fill="#70C217"/>
<ellipse cx="392.528" cy="431.203" rx="3.3853" ry="3.52358" transform="rotate(-180 392.528 431.203)" fill="#70C217"/>
<ellipse cx="342.876" cy="431.203" rx="3.3853" ry="3.52358" transform="rotate(-180 342.876 431.203)" fill="#70C217"/>
<ellipse cx="293.225" cy="431.203" rx="3.3853" ry="3.52358" transform="rotate(-180 293.225 431.203)" fill="#70C217"/>
<ellipse cx="243.574" cy="431.203" rx="3.3853" ry="3.52358" transform="rotate(-180 243.574 431.203)" fill="#70C217"/>
<ellipse cx="442.179" cy="379.524" rx="3.3853" ry="3.52358" transform="rotate(-180 442.179 379.524)" fill="#70C217"/>
<ellipse cx="392.528" cy="379.524" rx="3.3853" ry="3.52358" transform="rotate(-180 392.528 379.524)" fill="#70C217"/>
<ellipse cx="342.876" cy="379.524" rx="3.3853" ry="3.52358" transform="rotate(-180 342.876 379.524)" fill="#70C217"/>
<ellipse cx="293.225" cy="379.524" rx="3.3853" ry="3.52358" transform="rotate(-180 293.225 379.524)" fill="#70C217"/>
<ellipse cx="243.574" cy="379.524" rx="3.3853" ry="3.52358" transform="rotate(-180 243.574 379.524)" fill="#70C217"/>
<ellipse cx="1237.96" cy="962.24" rx="3.52358" ry="3.3853" transform="rotate(-90 1237.96 962.24)" fill="#70C217"/>
<ellipse cx="1237.96" cy="910.561" rx="3.52358" ry="3.3853" transform="rotate(-90 1237.96 910.561)" fill="#70C217"/>
<ellipse cx="1237.96" cy="858.882" rx="3.52358" ry="3.3853" transform="rotate(-90 1237.96 858.882)" fill="#70C217"/>
<ellipse cx="1237.96" cy="807.203" rx="3.52358" ry="3.3853" transform="rotate(-90 1237.96 807.203)" fill="#70C217"/>
<ellipse cx="1237.96" cy="755.524" rx="3.52358" ry="3.3853" transform="rotate(-90 1237.96 755.524)" fill="#70C217"/>
<ellipse cx="1287.61" cy="962.241" rx="3.52358" ry="3.3853" transform="rotate(-90 1287.61 962.241)" fill="#70C217"/>
<ellipse cx="1287.61" cy="910.561" rx="3.52358" ry="3.3853" transform="rotate(-90 1287.61 910.561)" fill="#70C217"/>
<ellipse cx="1287.61" cy="858.882" rx="3.52358" ry="3.3853" transform="rotate(-90 1287.61 858.882)" fill="#70C217"/>
<ellipse cx="1287.61" cy="807.203" rx="3.52358" ry="3.3853" transform="rotate(-90 1287.61 807.203)" fill="#70C217"/>
<ellipse cx="1287.61" cy="755.524" rx="3.52358" ry="3.3853" transform="rotate(-90 1287.61 755.524)" fill="#70C217"/>
<ellipse cx="1337.26" cy="962.241" rx="3.52358" ry="3.3853" transform="rotate(-90 1337.26 962.241)" fill="#70C217"/>
<ellipse cx="1337.26" cy="910.561" rx="3.52358" ry="3.3853" transform="rotate(-90 1337.26 910.561)" fill="#70C217"/>
<ellipse cx="1337.26" cy="858.882" rx="3.52358" ry="3.3853" transform="rotate(-90 1337.26 858.882)" fill="#70C217"/>
<ellipse cx="1337.26" cy="807.203" rx="3.52358" ry="3.3853" transform="rotate(-90 1337.26 807.203)" fill="#70C217"/>
<ellipse cx="1337.26" cy="755.524" rx="3.52358" ry="3.3853" transform="rotate(-90 1337.26 755.524)" fill="#70C217"/>
<ellipse cx="1386.91" cy="962.241" rx="3.52358" ry="3.3853" transform="rotate(-90 1386.91 962.241)" fill="#70C217"/>
<ellipse cx="1386.91" cy="910.561" rx="3.52358" ry="3.3853" transform="rotate(-90 1386.91 910.561)" fill="#70C217"/>
<ellipse cx="1386.91" cy="858.882" rx="3.52358" ry="3.3853" transform="rotate(-90 1386.91 858.882)" fill="#70C217"/>
<ellipse cx="1386.91" cy="807.203" rx="3.52358" ry="3.3853" transform="rotate(-90 1386.91 807.203)" fill="#70C217"/>
<ellipse cx="1386.91" cy="755.524" rx="3.52358" ry="3.3853" transform="rotate(-90 1386.91 755.524)" fill="#70C217"/>
<ellipse cx="1436.56" cy="962.241" rx="3.52358" ry="3.3853" transform="rotate(-90 1436.56 962.241)" fill="#70C217"/>
<ellipse cx="1436.56" cy="910.561" rx="3.52358" ry="3.3853" transform="rotate(-90 1436.56 910.561)" fill="#70C217"/>
<ellipse cx="1436.56" cy="858.882" rx="3.52358" ry="3.3853" transform="rotate(-90 1436.56 858.882)" fill="#70C217"/>
<ellipse cx="1436.56" cy="807.203" rx="3.52358" ry="3.3853" transform="rotate(-90 1436.56 807.203)" fill="#70C217"/>
<ellipse cx="1436.56" cy="755.524" rx="3.52358" ry="3.3853" transform="rotate(-90 1436.56 755.524)" fill="#70C217"/>
<ellipse cx="1486.21" cy="962.241" rx="3.52358" ry="3.3853" transform="rotate(-90 1486.21 962.241)" fill="#70C217"/>
<ellipse cx="1486.21" cy="910.561" rx="3.52358" ry="3.3853" transform="rotate(-90 1486.21 910.561)" fill="#70C217"/>
<ellipse cx="1486.21" cy="858.882" rx="3.52358" ry="3.3853" transform="rotate(-90 1486.21 858.882)" fill="#70C217"/>
<ellipse cx="1486.21" cy="807.203" rx="3.52358" ry="3.3853" transform="rotate(-90 1486.21 807.203)" fill="#70C217"/>
<ellipse cx="1486.21" cy="755.524" rx="3.52358" ry="3.3853" transform="rotate(-90 1486.21 755.524)" fill="#70C217"/>
<ellipse cx="1535.86" cy="962.241" rx="3.52358" ry="3.3853" transform="rotate(-90 1535.86 962.241)" fill="#70C217"/>
<ellipse cx="1535.86" cy="910.561" rx="3.52358" ry="3.3853" transform="rotate(-90 1535.86 910.561)" fill="#70C217"/>
<ellipse cx="1535.86" cy="858.882" rx="3.52358" ry="3.3853" transform="rotate(-90 1535.86 858.882)" fill="#70C217"/>
<ellipse cx="1535.86" cy="807.203" rx="3.52358" ry="3.3853" transform="rotate(-90 1535.86 807.203)" fill="#70C217"/>
<ellipse cx="1535.86" cy="755.524" rx="3.52358" ry="3.3853" transform="rotate(-90 1535.86 755.524)" fill="#70C217"/>
<ellipse cx="1585.52" cy="962.241" rx="3.52358" ry="3.3853" transform="rotate(-90 1585.52 962.241)" fill="#70C217"/>
<ellipse cx="1585.52" cy="910.561" rx="3.52358" ry="3.3853" transform="rotate(-90 1585.52 910.561)" fill="#70C217"/>
<ellipse cx="1585.52" cy="858.882" rx="3.52358" ry="3.3853" transform="rotate(-90 1585.52 858.882)" fill="#70C217"/>
<ellipse cx="1585.52" cy="807.203" rx="3.52358" ry="3.3853" transform="rotate(-90 1585.52 807.203)" fill="#70C217"/>
<ellipse cx="1585.52" cy="755.524" rx="3.52358" ry="3.3853" transform="rotate(-90 1585.52 755.524)" fill="#70C217"/>
<ellipse cx="1635.17" cy="962.241" rx="3.52358" ry="3.3853" transform="rotate(-90 1635.17 962.241)" fill="#70C217"/>
<ellipse cx="1635.17" cy="910.561" rx="3.52358" ry="3.3853" transform="rotate(-90 1635.17 910.561)" fill="#70C217"/>
<ellipse cx="1635.17" cy="858.882" rx="3.52358" ry="3.3853" transform="rotate(-90 1635.17 858.882)" fill="#70C217"/>
<ellipse cx="1635.17" cy="807.203" rx="3.52358" ry="3.3853" transform="rotate(-90 1635.17 807.203)" fill="#70C217"/>
<ellipse cx="1635.17" cy="755.524" rx="3.52358" ry="3.3853" transform="rotate(-90 1635.17 755.524)" fill="#70C217"/>
<ellipse cx="1684.82" cy="962.241" rx="3.52358" ry="3.3853" transform="rotate(-90 1684.82 962.241)" fill="#70C217"/>
<ellipse cx="1684.82" cy="910.561" rx="3.52358" ry="3.3853" transform="rotate(-90 1684.82 910.561)" fill="#70C217"/>
<ellipse cx="1684.82" cy="858.882" rx="3.52358" ry="3.3853" transform="rotate(-90 1684.82 858.882)" fill="#70C217"/>
<ellipse cx="1684.82" cy="807.203" rx="3.52358" ry="3.3853" transform="rotate(-90 1684.82 807.203)" fill="#70C217"/>
<ellipse cx="1684.82" cy="755.524" rx="3.52358" ry="3.3853" transform="rotate(-90 1684.82 755.524)" fill="#70C217"/>
<path d="M610.463 372.5C610.463 481.948 525.244 570.5 420.331 570.5C315.417 570.5 230.199 481.948 230.199 372.5C230.199 263.052 315.417 174.5 420.331 174.5C525.244 174.5 610.463 263.052 610.463 372.5Z" stroke="#FFBA49" stroke-width="5"/>
<path d="M1633.67 667C1633.67 738.064 1578.35 795.5 1510.31 795.5C1442.27 795.5 1386.95 738.064 1386.95 667C1386.95 595.936 1442.27 538.5 1510.31 538.5C1578.35 538.5 1633.67 595.936 1633.67 667Z" stroke="white" stroke-width="5"/>
<path d="M268.433 159.5C268.433 176.164 255.479 189.5 239.708 189.5C223.938 189.5 210.984 176.164 210.984 159.5C210.984 142.836 223.938 129.5 239.708 129.5C255.479 129.5 268.433 142.836 268.433 159.5Z" stroke="#FFBA49" stroke-width="5"/>
<path d="M1395.44 501.5C1395.44 518.164 1382.49 531.5 1366.72 531.5C1350.95 531.5 1338 518.164 1338 501.5C1338 484.836 1350.95 471.5 1366.72 471.5C1382.49 471.5 1395.44 484.836 1395.44 501.5Z" stroke="white" stroke-width="5"/>
</svg>
