<svg width="473" height="215" viewBox="0 0 473 215" fill="none" xmlns="http://www.w3.org/2000/svg">
<circle cx="469.439" cy="4.50332" r="3.52358" transform="rotate(90 469.439 4.50332)" fill="#3F3C3D"/>
<circle cx="469.439" cy="56.182" r="3.52358" transform="rotate(90 469.439 56.182)" fill="#3F3C3D"/>
<circle cx="469.439" cy="107.861" r="3.52358" transform="rotate(90 469.439 107.861)" fill="#3F3C3D"/>
<circle cx="469.439" cy="159.54" r="3.52358" transform="rotate(90 469.439 159.54)" fill="#3F3C3D"/>
<circle cx="469.439" cy="211.22" r="3.52358" transform="rotate(90 469.439 211.22)" fill="#3F3C3D"/>
<circle cx="417.76" cy="4.50283" r="3.52358" transform="rotate(90 417.76 4.50283)" fill="#3F3C3D"/>
<circle cx="417.76" cy="56.182" r="3.52358" transform="rotate(90 417.76 56.182)" fill="#3F3C3D"/>
<circle cx="417.76" cy="107.861" r="3.52358" transform="rotate(90 417.76 107.861)" fill="#3F3C3D"/>
<circle cx="417.76" cy="159.54" r="3.52358" transform="rotate(90 417.76 159.54)" fill="#3F3C3D"/>
<circle cx="417.76" cy="211.22" r="3.52358" transform="rotate(90 417.76 211.22)" fill="#3F3C3D"/>
<circle cx="366.08" cy="4.50283" r="3.52358" transform="rotate(90 366.08 4.50283)" fill="#3F3C3D"/>
<circle cx="366.08" cy="56.182" r="3.52358" transform="rotate(90 366.08 56.182)" fill="#3F3C3D"/>
<circle cx="366.08" cy="107.861" r="3.52358" transform="rotate(90 366.08 107.861)" fill="#3F3C3D"/>
<circle cx="366.08" cy="159.54" r="3.52358" transform="rotate(90 366.08 159.54)" fill="#3F3C3D"/>
<circle cx="366.08" cy="211.22" r="3.52358" transform="rotate(90 366.08 211.22)" fill="#3F3C3D"/>
<circle cx="314.401" cy="4.50283" r="3.52358" transform="rotate(90 314.401 4.50283)" fill="#3F3C3D"/>
<circle cx="314.401" cy="56.182" r="3.52358" transform="rotate(90 314.401 56.182)" fill="#3F3C3D"/>
<circle cx="314.401" cy="107.861" r="3.52358" transform="rotate(90 314.401 107.861)" fill="#3F3C3D"/>
<circle cx="314.401" cy="159.54" r="3.52358" transform="rotate(90 314.401 159.54)" fill="#3F3C3D"/>
<circle cx="314.401" cy="211.22" r="3.52358" transform="rotate(90 314.401 211.22)" fill="#3F3C3D"/>
<circle cx="262.722" cy="4.50283" r="3.52358" transform="rotate(90 262.722 4.50283)" fill="#3F3C3D"/>
<circle cx="262.722" cy="56.182" r="3.52358" transform="rotate(90 262.722 56.182)" fill="#3F3C3D"/>
<circle cx="262.722" cy="107.861" r="3.52358" transform="rotate(90 262.722 107.861)" fill="#3F3C3D"/>
<circle cx="262.722" cy="159.54" r="3.52358" transform="rotate(90 262.722 159.54)" fill="#3F3C3D"/>
<circle cx="262.722" cy="211.22" r="3.52358" transform="rotate(90 262.722 211.22)" fill="#3F3C3D"/>
<circle cx="211.043" cy="4.50283" r="3.52358" transform="rotate(90 211.043 4.50283)" fill="#3F3C3D"/>
<circle cx="211.043" cy="56.182" r="3.52358" transform="rotate(90 211.043 56.182)" fill="#3F3C3D"/>
<circle cx="211.043" cy="107.861" r="3.52358" transform="rotate(90 211.043 107.861)" fill="#3F3C3D"/>
<circle cx="211.043" cy="159.54" r="3.52358" transform="rotate(90 211.043 159.54)" fill="#3F3C3D"/>
<circle cx="211.043" cy="211.22" r="3.52358" transform="rotate(90 211.043 211.22)" fill="#3F3C3D"/>
<circle cx="159.364" cy="4.50283" r="3.52358" transform="rotate(90 159.364 4.50283)" fill="#3F3C3D"/>
<circle cx="159.364" cy="56.182" r="3.52358" transform="rotate(90 159.364 56.182)" fill="#3F3C3D"/>
<circle cx="159.364" cy="107.861" r="3.52358" transform="rotate(90 159.364 107.861)" fill="#3F3C3D"/>
<circle cx="159.364" cy="159.54" r="3.52358" transform="rotate(90 159.364 159.54)" fill="#3F3C3D"/>
<circle cx="159.364" cy="211.22" r="3.52358" transform="rotate(90 159.364 211.22)" fill="#3F3C3D"/>
<circle cx="107.684" cy="4.50283" r="3.52358" transform="rotate(90 107.684 4.50283)" fill="#3F3C3D"/>
<circle cx="107.684" cy="56.182" r="3.52358" transform="rotate(90 107.684 56.182)" fill="#3F3C3D"/>
<circle cx="107.684" cy="107.861" r="3.52358" transform="rotate(90 107.684 107.861)" fill="#3F3C3D"/>
<circle cx="107.684" cy="159.54" r="3.52358" transform="rotate(90 107.684 159.54)" fill="#3F3C3D"/>
<circle cx="107.684" cy="211.22" r="3.52358" transform="rotate(90 107.684 211.22)" fill="#3F3C3D"/>
<circle cx="56.0052" cy="4.50283" r="3.52358" transform="rotate(90 56.0052 4.50283)" fill="#3F3C3D"/>
<circle cx="56.0052" cy="56.182" r="3.52358" transform="rotate(90 56.0052 56.182)" fill="#3F3C3D"/>
<circle cx="56.0052" cy="107.861" r="3.52358" transform="rotate(90 56.0052 107.861)" fill="#3F3C3D"/>
<circle cx="56.0052" cy="159.54" r="3.52358" transform="rotate(90 56.0052 159.54)" fill="#3F3C3D"/>
<circle cx="56.0052" cy="211.22" r="3.52358" transform="rotate(90 56.0052 211.22)" fill="#3F3C3D"/>
<circle cx="4.32603" cy="4.50283" r="3.52358" transform="rotate(90 4.32603 4.50283)" fill="#3F3C3D"/>
<circle cx="4.32603" cy="56.182" r="3.52358" transform="rotate(90 4.32603 56.182)" fill="#3F3C3D"/>
<circle cx="4.32603" cy="107.861" r="3.52358" transform="rotate(90 4.32603 107.861)" fill="#3F3C3D"/>
<circle cx="4.32603" cy="159.54" r="3.52358" transform="rotate(90 4.32603 159.54)" fill="#3F3C3D"/>
<circle cx="4.32603" cy="211.22" r="3.52358" transform="rotate(90 4.32603 211.22)" fill="#3F3C3D"/>
</svg>
