<svg width="12" height="12" viewBox="0 0 18 18" fill="none" xmlns="http://www.w3.org/2000/svg">
<path d="M8.14111 15.3358C8.26936 15.4637 8.4349 15.5392 8.63097 15.5392C9.02247 15.5392 9.31658 15.2451 9.31658 14.8536C9.31658 14.6653 9.24104 14.492 9.12051 14.3638L3.63629 9.00008L9.12051 3.63608C9.24104 3.50815 9.31658 3.32751 9.31658 3.14655C9.31658 2.75472 9.02247 2.45322 8.63097 2.45322C8.4349 2.45322 8.26936 2.52876 8.14111 2.65669L2.17476 8.49512C2.0314 8.61565 1.94879 8.80401 1.94879 8.99976C1.94879 9.18844 2.0314 9.36169 2.17476 9.50472L8.14111 15.3358ZM14.8686 15.3358C15.0043 15.4637 15.1698 15.5392 15.3581 15.5392C15.75 15.5392 16.0511 15.2451 16.0511 14.8536C16.0511 14.6653 15.9759 14.492 15.8554 14.3638L10.3712 9.00008L15.8554 3.63608C15.9759 3.50815 16.0515 3.32751 16.0515 3.14655C16.053 3.05507 16.0362 2.96421 16.0019 2.87938C15.9676 2.79456 15.9166 2.7175 15.8519 2.6528C15.7872 2.58811 15.7101 2.5371 15.6253 2.50281C15.5405 2.46852 15.4496 2.45166 15.3581 2.45322C15.2683 2.45316 15.1793 2.47113 15.0965 2.50608C15.0136 2.54103 14.9387 2.59224 14.876 2.65669L8.90193 8.49512C8.7589 8.61565 8.68336 8.80401 8.68336 8.99976C8.68336 9.18844 8.7589 9.36169 8.90193 9.50472L14.8686 15.3358Z" fill="#7166FF"/>
</svg>
