<svg width="91" height="21" viewBox="0 0 91 21" fill="none" xmlns="http://www.w3.org/2000/svg">
<path d="M17.9956 0.875H2.44C1.21777 0.875 0.217773 1.875 0.217773 3.09722V18.6528C0.217773 19.8761 1.21777 20.875 2.44 20.875H10.2178V13.0972H7.99555V10.3472H10.2178V8.06944C10.2178 5.665 11.5644 3.97611 14.4022 3.97611L16.4056 3.97833V6.87278H15.0756C13.9711 6.87278 13.5511 7.70167 13.5511 8.47056V10.3483H16.4044L15.7733 13.0972H13.5511V20.875H17.9956C19.2178 20.875 20.2178 19.8761 20.2178 18.6528V3.09722C20.2178 1.875 19.2178 0.875 17.9956 0.875Z" fill="#2C80FF"/>
<path d="M29.3733 16.1935H27.1956V15.3343C26.6474 15.9417 25.8918 16.3417 24.7956 16.3417C23.2993 16.3417 22.0696 15.4824 22.0696 13.912V13.8824C22.0696 12.1491 23.3881 11.3491 25.2696 11.3491C26.0696 11.3491 26.6474 11.4824 27.2104 11.675V11.5417C27.2104 10.6083 26.6326 10.0898 25.5067 10.0898C24.6474 10.0898 24.04 10.2528 23.3141 10.5194L22.7511 8.80093C23.6252 8.41574 24.4844 8.16389 25.8326 8.16389C28.2918 8.16389 29.3733 9.43796 29.3733 11.5861V16.1935ZM27.24 13.3935V12.9935C26.8548 12.8157 26.3511 12.6972 25.803 12.6972C24.84 12.6972 24.2474 13.0824 24.2474 13.7935V13.8231C24.2474 14.4306 24.7511 14.7861 25.477 14.7861C26.5289 14.7861 27.24 14.2083 27.24 13.3935Z" fill="#2C80FF"/>
<path d="M39.0444 14.9194C38.274 15.7639 37.3851 16.3713 35.7999 16.3713C33.4148 16.3713 31.6666 14.5343 31.6666 12.2676V12.238C31.6666 9.9713 33.3999 8.10463 35.8296 8.10463C37.3259 8.10463 38.2592 8.60833 38.9999 9.43796L37.6222 10.9194C37.1185 10.3861 36.6148 10.0454 35.8148 10.0454C34.6888 10.0454 33.8888 11.038 33.8888 12.2083V12.238C33.8888 13.4528 34.674 14.4306 35.9037 14.4306C36.6592 14.4306 37.1777 14.1046 37.7259 13.5861L39.0444 14.9194Z" fill="#2C80FF"/>
<path d="M48.4465 12.4454C48.4465 12.6676 48.4317 12.8009 48.4169 13.0083H42.8909C43.1131 14.0306 43.8243 14.5639 44.8317 14.5639C45.5872 14.5639 46.1354 14.3269 46.7576 13.7491L48.0465 14.8898C47.3057 15.8083 46.2391 16.3713 44.802 16.3713C42.4168 16.3713 40.6539 14.6972 40.6539 12.2676V12.238C40.6539 9.9713 42.2687 8.10463 44.5798 8.10463C47.2317 8.10463 48.4465 10.1639 48.4465 12.4157V12.4454ZM46.2539 11.6009C46.1205 10.5935 45.528 9.91204 44.5798 9.91204C43.6465 9.91204 43.0391 10.5787 42.8613 11.6009H46.2539Z" fill="#2C80FF"/>
<path d="M59.2062 12.238C59.2062 14.8898 57.4729 16.3417 55.5914 16.3417C54.3914 16.3417 53.6506 15.7935 53.1173 15.1565V16.1935H50.8655V5.3787H53.1173V9.39352C53.6655 8.65278 54.421 8.10463 55.5914 8.10463C57.4432 8.10463 59.2062 9.55648 59.2062 12.2083V12.238ZM56.9543 12.238V12.2083C56.9543 10.8898 56.0655 10.0157 55.0136 10.0157C53.9618 10.0157 53.0877 10.8898 53.0877 12.2083V12.238C53.0877 13.5565 53.9618 14.4306 55.0136 14.4306C56.0655 14.4306 56.9543 13.5713 56.9543 12.238Z" fill="#2C80FF"/>
<path d="M69.8107 12.238C69.8107 14.5194 67.9737 16.3713 65.4996 16.3713C63.0403 16.3713 61.2181 14.5491 61.2181 12.2676V12.238C61.2181 9.95648 63.0552 8.10463 65.5292 8.10463C67.9885 8.10463 69.8107 9.92685 69.8107 12.2083V12.238ZM67.5885 12.2676V12.238C67.5885 11.0676 66.744 10.0454 65.4996 10.0454C64.2107 10.0454 63.4403 11.038 63.4403 12.2083V12.238C63.4403 13.4083 64.2848 14.4306 65.5292 14.4306C66.8181 14.4306 67.5885 13.438 67.5885 12.2676Z" fill="#2C80FF"/>
<path d="M80.3894 12.238C80.3894 14.5194 78.5524 16.3713 76.0783 16.3713C73.619 16.3713 71.7968 14.5491 71.7968 12.2676V12.238C71.7968 9.95648 73.6339 8.10463 76.1079 8.10463C78.5672 8.10463 80.3894 9.92685 80.3894 12.2083V12.238ZM78.1672 12.2676V12.238C78.1672 11.0676 77.3228 10.0454 76.0783 10.0454C74.7894 10.0454 74.019 11.038 74.019 12.2083V12.238C74.019 13.4083 74.8635 14.4306 76.1079 14.4306C77.3968 14.4306 78.1672 13.438 78.1672 12.2676Z" fill="#2C80FF"/>
<path d="M90.4496 16.1935H87.8718L85.7977 12.9491L85.0126 13.7787V16.1935H82.7607V5.3787H85.0126V11.1417L87.6496 8.25278H90.3459L87.3237 11.3787L90.4496 16.1935Z" fill="#2C80FF"/>
</svg>
