<svg width="83" height="17" viewBox="0 0 83 17" fill="none" xmlns="http://www.w3.org/2000/svg">
<path d="M5.29646 16.875V8.63464L2.74087 6.29667L0.449219 4.99926V15.4208C0.449219 16.2254 1.10113 16.875 1.90342 16.875H5.29646Z" fill="#4285F4"/>
<path d="M16.9298 16.875H20.3228C21.1275 16.875 21.777 16.223 21.777 15.4208V4.99934L19.1813 6.48537L16.9298 8.63465V16.875Z" fill="#34A853"/>
<path d="M5.29646 8.63464L4.94871 5.4149L5.29646 2.33329L11.1131 6.69582L16.9298 2.33329L17.3187 5.24853L16.9298 8.63465L11.1131 12.9972L5.29646 8.63464Z" fill="#EA4335"/>
<path d="M16.9298 2.33329L16.9298 8.63465L21.777 4.99934V3.06035C21.777 1.26207 19.7242 0.236916 18.2871 1.31539L16.9298 2.33329Z" fill="#FBBC04"/>
<path d="M0.449219 4.99926L5.29646 8.63464L5.29646 2.33329L3.93914 1.3154C2.49952 0.236845 0.449219 1.26208 0.449219 3.06028V4.99926Z" fill="#C5221F"/>
<path d="M47.2505 13.0861C46.7344 13.5496 46.097 13.9499 45.3386 14.287C44.5907 14.6136 43.7479 14.7768 42.8104 14.7768C41.9361 14.7768 41.1513 14.6294 40.456 14.3344C39.7713 14.0394 39.1814 13.6339 38.6863 13.1177C38.2017 12.6015 37.8277 11.9958 37.5644 11.3006C37.3116 10.6053 37.1851 9.86265 37.1851 9.07259C37.1851 8.31413 37.3168 7.58727 37.5802 6.89201C37.8541 6.19676 38.2333 5.58578 38.7179 5.05907C39.2024 4.53236 39.7818 4.11626 40.456 3.81077C41.1407 3.49475 41.8992 3.33674 42.7314 3.33674C43.1949 3.33674 43.6162 3.36834 43.9955 3.43154C44.3852 3.49475 44.7434 3.58956 45.07 3.71597C45.4071 3.84238 45.7178 4.00039 46.0022 4.19C46.2972 4.36908 46.5816 4.5745 46.8555 4.80625L46.0496 5.75433C45.839 5.56471 45.6177 5.39616 45.386 5.24869C45.1542 5.09067 44.9014 4.959 44.6275 4.85365C44.3642 4.73778 44.0692 4.64824 43.7427 4.58503C43.4266 4.52183 43.0737 4.49023 42.684 4.49023C42.073 4.49023 41.5094 4.61137 40.9932 4.85365C40.4771 5.09594 40.0346 5.4225 39.6659 5.83333C39.2972 6.24416 39.0076 6.72873 38.7969 7.28705C38.5862 7.83482 38.4808 8.41947 38.4808 9.04098C38.4808 9.70463 38.5809 10.3209 38.7811 10.8897C38.9918 11.448 39.2867 11.9326 39.6659 12.3434C40.0452 12.7543 40.5034 13.0756 41.0406 13.3073C41.5779 13.5391 42.1836 13.6549 42.8578 13.6549C43.4898 13.6549 44.085 13.5496 44.6433 13.3389C45.2016 13.1177 45.6704 12.8543 46.0496 12.5489V9.79944H42.684V8.67755H47.2505V13.0861Z" fill="#A39F9F"/>
<path d="M57.1291 7.87169C57.2766 7.65047 57.4399 7.43979 57.619 7.23964C57.8086 7.03949 58.0193 6.86568 58.251 6.7182C58.4828 6.57072 58.7409 6.45485 59.0253 6.37057C59.3203 6.2863 59.6468 6.24416 60.005 6.24416C60.953 6.24416 61.6957 6.53912 62.2329 7.12903C62.7702 7.70841 63.0388 8.50901 63.0388 9.53082V14.5872H61.8221V9.81524C61.8221 9.02518 61.6325 8.41947 61.2533 7.9981C60.8846 7.5662 60.3684 7.35025 59.7048 7.35025C59.3993 7.35025 59.1096 7.40819 58.8357 7.52406C58.5618 7.62941 58.3195 7.79269 58.1088 8.0139C57.9087 8.22459 57.7454 8.48794 57.619 8.80396C57.5031 9.11999 57.4452 9.47815 57.4452 9.87845V14.5872H56.2443V9.78364C56.2443 9.01465 56.0547 8.41947 55.6754 7.9981C55.3067 7.5662 54.7958 7.35025 54.1427 7.35025C53.8162 7.35025 53.5159 7.41346 53.242 7.53987C52.9682 7.66628 52.7259 7.84536 52.5152 8.07711C52.315 8.30886 52.157 8.58275 52.0411 8.89877C51.9253 9.20426 51.8673 9.54662 51.8673 9.92585V14.5872H50.6506V6.41798H51.8673V7.79269C52.0043 7.59254 52.1518 7.39765 52.3098 7.20804C52.4783 7.01842 52.6679 6.85514 52.8786 6.7182C53.0893 6.57072 53.3263 6.45485 53.5897 6.37057C53.853 6.2863 54.1585 6.24416 54.5061 6.24416C55.1698 6.24416 55.7176 6.40218 56.1495 6.7182C56.5814 7.02369 56.9079 7.40819 57.1291 7.87169Z" fill="#A39F9F"/>
<path d="M69.4252 7.38185C68.9407 7.38185 68.4982 7.43979 68.0979 7.55567C67.7082 7.66101 67.3237 7.80322 66.9444 7.9823L66.581 6.98682C67.034 6.77614 67.4922 6.61286 67.9557 6.49698C68.4192 6.37057 68.9512 6.30737 69.5516 6.30737C70.6683 6.30737 71.5268 6.58652 72.1272 7.14483C72.7277 7.69261 73.0279 8.50901 73.0279 9.59403V14.5872H71.8586V13.3547C71.5742 13.7234 71.1897 14.05 70.7051 14.3344C70.2311 14.6188 69.6306 14.761 68.9038 14.761C68.5246 14.761 68.1506 14.7084 67.7819 14.603C67.4237 14.4977 67.0972 14.3397 66.8022 14.129C66.5178 13.9078 66.286 13.6391 66.107 13.3231C65.9384 13.0071 65.8541 12.6331 65.8541 12.2012C65.8541 11.7693 65.9384 11.3901 66.107 11.0635C66.2755 10.7264 66.5125 10.4473 66.818 10.2261C67.134 10.0049 67.5027 9.83631 67.9241 9.72044C68.356 9.60456 68.83 9.54662 69.3462 9.54662C69.8729 9.54662 70.3312 9.57823 70.7209 9.64143C71.1107 9.70463 71.4899 9.78891 71.8586 9.89425V9.60983C71.8586 8.87244 71.6427 8.31939 71.2108 7.9507C70.7894 7.57147 70.1942 7.38185 69.4252 7.38185ZM69.4726 10.4473C68.7036 10.4473 68.1137 10.6 67.7029 10.9055C67.2921 11.211 67.0866 11.6271 67.0866 12.1538C67.0866 12.4172 67.1393 12.6489 67.2447 12.8491C67.3605 13.0492 67.5133 13.223 67.7029 13.3705C67.8925 13.5075 68.1085 13.6128 68.3507 13.6865C68.6036 13.7603 68.8669 13.7972 69.1408 13.7972C69.52 13.7972 69.8729 13.7445 70.1995 13.6391C70.5366 13.5233 70.8263 13.3705 71.0686 13.1809C71.3214 12.9808 71.5163 12.749 71.6532 12.4857C71.8007 12.2118 71.8744 11.9115 71.8744 11.585V10.7949C71.5689 10.7106 71.216 10.6316 70.8157 10.5579C70.426 10.4842 69.9783 10.4473 69.4726 10.4473Z" fill="#A39F9F"/>
<path d="M77.8331 4.63244H76.4426V3.28933H77.8331V4.63244ZM77.7383 14.5872H76.5216V6.41798H77.7383V14.5872Z" fill="#A39F9F"/>
<path d="M82.6792 14.5872H81.4626V3.05231H82.6792V14.5872Z" fill="#A39F9F"/>
</svg>
