<svg width="75" height="21" viewBox="0 0 75 21" fill="none" xmlns="http://www.w3.org/2000/svg">
<g clip-path="url(#clip0_13_1882)">
<path d="M54.8462 2.51504C54.8462 1.7433 55.4882 1.11694 56.2796 1.11694H72.8069C73.5987 1.11694 74.2404 1.7433 74.2404 2.51504V19.2361C74.2404 20.0081 73.5987 20.634 72.8069 20.634H56.2796C55.4882 20.634 54.8462 20.0081 54.8462 19.2364V2.51504Z" fill="url(#paint0_linear_13_1882)"/>
<path d="M0.556152 17.4653H8.64986V14.8079H3.48571V4.67026H0.556152V17.4653ZM12.7477 17.4653V8.65235H9.81835V17.4653H12.7477ZM11.2833 7.4493C12.3046 7.4493 12.9404 6.77252 12.9404 5.92629C12.9215 5.06163 12.3046 4.40405 11.3027 4.40405C10.3006 4.40405 9.64532 5.06189 9.64532 5.92629C9.64532 6.77252 10.2811 7.4493 11.2641 7.4493H11.2833ZM14.1076 17.4653H17.0369V12.5436C17.0369 12.2802 17.0558 12.0168 17.1334 11.8292C17.3448 11.3029 17.8268 10.7577 18.6362 10.7577C19.6964 10.7577 20.1206 11.566 20.1206 12.7501V17.4651H23.0493V12.412C23.0493 9.70489 21.6041 8.44527 19.6767 8.44527C18.0966 8.44527 17.4027 9.32862 17.0172 9.9304H17.0369V8.65235H14.1076C14.1463 9.47938 14.1076 17.4653 14.1076 17.4653ZM27.1819 4.67026H24.2526V17.4653H27.1819V14.608L27.914 13.6862L30.2075 17.4653H33.811L29.9571 11.9945L33.3293 8.27275H29.8031C29.8031 8.27275 27.3941 11.6024 27.1819 11.9976V4.67026Z" fill="url(#paint1_linear_13_1882)"/>
<path d="M41.6447 13.789C41.6834 13.5628 41.7412 13.1286 41.7412 12.6377C41.7412 10.3596 40.5848 8.04665 37.54 8.04665C34.2831 8.04665 32.7798 10.6225 32.7798 12.9587C32.7798 15.848 34.6107 17.6524 37.8096 17.6524C39.0817 17.6524 40.2569 17.465 41.2208 17.07L40.8354 15.1354C40.0449 15.3975 39.2356 15.5289 38.2337 15.5289C36.8655 15.5289 35.6709 14.967 35.5744 13.7701L41.6447 13.7885V13.789ZM35.5552 11.8073C35.6323 11.0553 36.1337 9.94568 37.3862 9.94568C38.7157 9.94568 39.0244 11.1303 39.0244 11.8073H35.5552ZM48.9715 4.67018V9.09945H48.9329C48.5088 8.47949 47.6223 8.06585 46.4475 8.06585C44.1924 8.06585 42.2076 9.87042 42.2265 12.9533C42.2265 15.8109 44.0191 17.6721 46.2542 17.6721C47.4685 17.6721 48.6245 17.1453 49.2029 16.1301H49.2605L49.3765 17.4652H51.9779C51.9395 16.8448 51.9006 15.7733 51.9006 14.7205V4.66992L48.9715 4.67018ZM48.9715 13.3859C48.9715 13.6111 48.9524 13.8372 48.9134 14.0245C48.7407 14.8334 48.0467 15.3968 47.1987 15.3968C45.9849 15.3968 45.1945 14.4195 45.1945 12.878C45.1945 11.4308 45.8695 10.2651 47.2182 10.2651C48.1238 10.2651 48.7596 10.8853 48.9332 11.6558C48.9715 11.8255 48.9715 12.0136 48.9715 12.1826V13.3859Z" fill="url(#paint2_linear_13_1882)"/>
<path d="M60.7256 17.4546V8.64161H57.7963V17.4546H60.7259H60.7256ZM59.2615 7.43856C60.2828 7.43856 60.9186 6.76178 60.9186 5.91606C60.8994 5.05115 60.2828 4.39331 59.2809 4.39331C58.2783 4.39331 57.6235 5.05115 57.6235 5.91606C57.6235 6.76178 58.2591 7.43856 59.2423 7.43856H59.2612H59.2615ZM62.3469 17.4546H65.276V12.5336C65.276 12.2705 65.2952 12.0068 65.3725 11.8189C65.5841 11.2924 66.0661 10.7475 66.8755 10.7475C67.9352 10.7475 68.3593 11.5555 68.3593 12.7404V17.4546H71.2884V12.4015C71.2884 9.69466 69.8434 8.43504 67.9163 8.43504C66.3362 8.43504 65.6422 9.31813 65.2568 9.91966H65.2762V8.64187H62.3472C62.3853 9.46864 62.3469 17.4548 62.3469 17.4548V17.4546Z" fill="white"/>
</g>
<defs>
<linearGradient id="paint0_linear_13_1882" x1="74.2404" y1="1.11694" x2="51.748" y2="5.82138" gradientUnits="userSpaceOnUse">
<stop stop-color="#2C80FF"/>
<stop offset="0.510101" stop-color="#2F86B6"/>
<stop offset="1" stop-color="#275671"/>
</linearGradient>
<linearGradient id="paint1_linear_13_1882" x1="33.811" y1="4.40405" x2="2.53793" y2="21.1634" gradientUnits="userSpaceOnUse">
<stop stop-color="#2C80FF"/>
<stop offset="0.510101" stop-color="#2F86B6"/>
<stop offset="1" stop-color="#275671"/>
</linearGradient>
<linearGradient id="paint2_linear_13_1882" x1="51.9779" y1="4.66992" x2="30.7858" y2="11.2561" gradientUnits="userSpaceOnUse">
<stop stop-color="#2C80FF"/>
<stop offset="0.510101" stop-color="#2F86B6"/>
<stop offset="1" stop-color="#275671"/>
</linearGradient>
<clipPath id="clip0_13_1882">
<rect width="74.2105" height="20" fill="white" transform="translate(0.400391 0.875)"/>
</clipPath>
</defs>
</svg>
