<svg width="71" height="21" viewBox="0 0 71 21" fill="none" xmlns="http://www.w3.org/2000/svg">
<g clip-path="url(#clip0_13_1888)">
<path d="M3.79463 0.998457C2.36354 1.59791 0.790524 3.28928 0.293675 5.41394C-0.33564 8.10503 2.28272 9.24339 2.49765 8.87065C2.75039 8.43216 2.02847 8.28394 1.87984 6.8875C1.68778 5.08394 2.52628 3.06873 3.58162 2.18448C3.77751 2.0201 3.76833 2.24887 3.76833 2.67174C3.76833 3.42805 3.72655 10.2176 3.72655 11.6346C3.72655 13.5519 3.64737 14.1574 3.50504 14.7557C3.36107 15.3619 3.12929 15.7716 3.30477 15.9294C3.50093 16.1059 4.33847 15.686 4.82326 15.0094C5.40463 14.1979 5.60819 13.2231 5.64477 12.1649C5.68888 10.889 5.68696 8.86435 5.68888 7.70955C5.69052 6.65051 5.70669 3.54928 5.67025 1.6849C5.66135 1.22736 4.39313 0.747635 3.79463 0.998457ZM54.6087 9.97147C54.5626 10.9683 54.3419 11.7474 54.068 12.2969C53.5379 13.3609 52.4379 13.6912 51.9708 12.1619C51.7163 11.3282 51.7044 9.93585 51.8872 8.77243C52.0735 7.58736 52.5938 6.69229 53.455 6.77298C54.3046 6.85284 54.7023 7.94736 54.6087 9.97147ZM40.2868 16.1559C40.2753 17.812 40.0146 19.2641 39.4557 19.686C38.6628 20.2841 37.5972 19.8353 37.8179 18.6268C38.0131 17.5574 38.9365 16.4652 40.2891 15.1306C40.2891 15.1306 40.2919 15.435 40.2868 16.1559ZM40.0704 9.96174C40.0219 10.8697 39.7865 11.7816 39.5297 12.2969C38.9996 13.3609 37.8916 13.6935 37.4324 12.1619C37.1185 11.1153 37.1937 9.76106 37.3489 8.90763C37.5505 7.80037 38.0393 6.77311 38.9167 6.77311C39.7698 6.77311 40.1907 7.70914 40.0704 9.96174ZM31.7738 9.94805C31.7218 10.9094 31.5342 11.7131 31.2333 12.2969C30.6886 13.3537 29.6111 13.6887 29.136 12.1619C28.7934 11.0609 28.91 9.55983 29.0524 8.74887C29.2639 7.54544 29.7935 6.69229 30.6202 6.77311C31.4694 6.85613 31.8822 7.9475 31.7738 9.94805ZM69.7948 11.0711C69.5872 11.0711 69.4924 11.285 69.4139 11.645C69.1423 12.8976 68.8564 13.1802 68.4881 13.1802C68.0764 13.1802 67.7065 12.5602 67.6113 11.3189C67.5367 10.3427 67.5487 8.54572 67.6442 6.75818C67.6638 6.39092 67.5624 6.0275 66.5774 5.66969C66.1535 5.51572 65.5374 5.289 65.2305 6.02955C64.3638 8.12188 64.0246 9.78298 63.9448 10.4575C63.9407 10.4924 63.8978 10.4997 63.8904 10.418C63.8394 9.87764 63.7259 8.89544 63.7116 6.83216C63.7089 6.42955 63.6237 6.08695 63.1793 5.8064C62.8909 5.62421 62.0154 5.30229 61.7002 5.68544C61.4271 5.99859 61.1107 6.84161 60.782 7.84106C60.5149 8.65339 60.3289 9.2027 60.3289 9.2027C60.3289 9.2027 60.3324 7.0112 60.3356 6.17983C60.337 5.86627 60.1219 5.76174 60.057 5.74284C59.7652 5.65818 59.1898 5.51668 58.9457 5.51668C58.6444 5.51668 58.5707 5.6849 58.5707 5.93037C58.5707 5.96257 58.5231 8.81572 58.5231 10.8108C58.5231 10.8975 58.5231 10.992 58.5235 11.0926C58.357 12.0096 57.8165 13.2542 57.2289 13.2542C56.6404 13.2542 56.3628 12.7339 56.3628 10.3554C56.3628 8.96791 56.4045 8.36448 56.4249 7.36092C56.4368 6.78284 56.4598 6.339 56.4585 6.23832C56.4541 5.92942 55.9201 5.77366 55.6715 5.71613C55.4217 5.65818 55.2048 5.63558 55.0353 5.64531C54.7954 5.65901 54.6257 5.81613 54.6257 6.03257C54.6257 6.14873 54.6271 6.36928 54.6271 6.36928C54.3182 5.8838 53.8213 5.54599 53.4908 5.44805C52.6004 5.18366 51.6713 5.41791 50.9705 6.39859C50.4135 7.17764 50.0778 8.06024 49.9456 9.32805C49.849 10.255 49.8805 11.1949 50.0523 11.9898C49.8448 12.8868 49.4597 13.2542 49.0379 13.2542C48.4256 13.2542 47.9818 12.255 48.0333 10.5265C48.0672 9.38969 48.2948 8.59188 48.5434 7.43763C48.6494 6.94558 48.5633 6.68805 48.3472 6.4412C48.149 6.21476 47.7267 6.099 47.1198 6.2412C46.6875 6.3427 46.0693 6.45188 45.5037 6.53572C45.5037 6.53572 45.5379 6.39942 45.5659 6.15942C45.713 4.90051 44.3449 5.00257 43.9083 5.40462C43.6479 5.64476 43.4705 5.92791 43.4033 6.43695C43.2964 7.2449 43.9553 7.62599 43.9553 7.62599C43.7393 8.61558 43.2093 9.90818 42.6622 10.8428C42.3691 11.3435 42.145 11.7146 41.8556 12.109C41.8461 10.5263 41.8565 8.94352 41.8865 7.36106C41.8985 6.78298 41.9216 6.35092 41.9204 6.2501C41.9171 6.02435 41.7852 5.93887 41.5108 5.83092C41.2681 5.73531 40.9812 5.66928 40.6835 5.64599C40.3079 5.61695 40.0816 5.81599 40.0876 6.05161C40.0887 6.09613 40.0887 6.36928 40.0887 6.36928C39.7798 5.8838 39.283 5.54599 38.9524 5.44805C38.062 5.18366 37.133 5.41791 36.4322 6.39859C35.8753 7.17764 35.5107 8.27106 35.4072 9.31846C35.3111 10.2945 35.3287 11.1239 35.46 11.8228C35.3185 12.5226 34.9113 13.2543 34.4512 13.2543C33.8627 13.2543 33.5279 12.7339 33.5279 10.3554C33.5279 8.96791 33.5696 8.36448 33.5901 7.36092C33.602 6.78298 33.6249 6.339 33.6237 6.23832C33.6193 5.92942 33.0852 5.7738 32.8365 5.71613C32.5765 5.65585 32.352 5.63394 32.1796 5.64668C31.9522 5.66353 31.7922 5.86722 31.7922 6.01914V6.36928C31.4833 5.8838 30.9864 5.54599 30.6559 5.44805C29.7655 5.18366 28.8416 5.42174 28.1356 6.39859C27.6753 7.03544 27.3026 7.74147 27.1108 9.30448C27.0553 9.75613 27.0308 10.1793 27.0341 10.5745C26.8505 11.6972 26.0396 12.9912 25.3764 12.9912C24.9883 12.9912 24.6186 12.2383 24.6186 10.6341C24.6186 8.49709 24.7509 5.45435 24.7734 5.1612C24.7734 5.1612 25.6113 5.14695 25.7735 5.14503C26.1916 5.14037 26.5701 5.15037 27.127 5.12174C27.4061 5.10764 27.6752 4.10531 27.387 3.98133C27.2563 3.92517 26.3331 3.87613 25.9671 3.86832C25.6594 3.86147 24.8027 3.79791 24.8027 3.79791C24.8027 3.79791 24.8796 1.77832 24.8975 1.56503C24.9126 1.38709 24.6824 1.29558 24.5507 1.2401C24.2298 1.10448 23.9429 1.03942 23.6027 0.969279C23.1326 0.872292 22.9194 0.967224 22.8778 1.3638C22.815 1.96585 22.7826 3.72928 22.7826 3.72928C22.4376 3.72928 21.2593 3.66188 20.9144 3.66188C20.5938 3.66188 20.2478 5.04051 20.6911 5.0575C21.2009 5.07722 22.0896 5.09448 22.6786 5.11202C22.6786 5.11202 22.6523 8.2049 22.6523 9.15996C22.6523 9.26133 22.6529 9.35928 22.6534 9.45421C22.3292 11.1439 21.1872 12.0568 21.1872 12.0568C21.4324 10.9389 20.9315 10.0993 20.0292 9.38859C19.6967 9.12681 19.0404 8.63106 18.3061 8.08777C18.3061 8.08777 18.7313 7.66859 19.1086 6.82531C19.3757 6.22777 19.3874 5.54435 18.7313 5.39353C17.6475 5.14421 16.7539 5.94024 16.4874 6.7901C16.2808 7.44846 16.3909 7.93681 16.7956 8.44421C16.825 8.48133 16.8572 8.51928 16.8901 8.55736C16.6456 9.02887 16.3094 9.6638 16.0248 10.1561C15.2346 11.5233 14.6378 12.6043 14.1867 12.6043C13.8261 12.6043 13.8309 11.5065 13.8309 10.4787C13.8309 9.5927 13.8964 8.26051 13.9487 6.88147C13.966 6.42531 13.7378 6.16544 13.3556 5.9301C13.1233 5.78709 12.6275 5.50599 12.3404 5.50599C11.9105 5.50599 10.6705 5.56448 9.49902 8.95353C9.35134 9.38065 9.06121 10.159 9.06121 10.159L9.08628 6.08353C9.08628 5.98791 9.03532 5.89558 8.91874 5.83243C8.72134 5.72517 8.19408 5.50599 7.72518 5.50599C7.50189 5.50599 7.39025 5.60983 7.39025 5.81695L7.34943 12.1931C7.34943 12.6776 7.36203 13.2428 7.40998 13.49C7.45765 13.7374 7.53504 13.9387 7.63066 14.0585C7.72641 14.178 7.83696 14.2694 8.01929 14.3069C8.18902 14.3419 9.11833 14.4612 9.16669 14.1061C9.2245 13.6804 9.22682 13.2201 9.71477 11.5031C10.4745 8.82996 11.4649 7.52585 11.9307 7.06257C12.0122 6.98174 12.105 6.97681 12.1005 7.10928C12.0808 7.69531 12.0108 9.15996 11.9638 10.4038C11.8376 13.7333 12.4433 14.3504 13.3089 14.3504C13.9711 14.3504 14.9045 13.6924 15.905 12.027C16.4625 11.0988 17.0175 10.1691 17.5698 9.23791C17.873 9.51859 18.2134 9.82065 18.5534 10.1434C19.3438 10.8935 19.6033 11.6064 19.4311 12.2826C19.2996 12.7994 18.8035 13.3322 17.9209 12.8145C17.6637 12.6634 17.5538 12.5465 17.2952 12.3763C17.1563 12.2849 16.9441 12.2575 16.8168 12.3534C16.4864 12.6024 16.2974 12.9194 16.1894 13.3117C16.0845 13.6935 16.4668 13.8953 16.8633 14.0719C17.2045 14.2238 17.9381 14.3615 18.4057 14.3771C20.2283 14.438 21.6885 13.4971 22.7049 11.0698C22.8868 13.1661 23.6611 14.3523 25.0064 14.3523C25.9059 14.3523 26.8076 13.1897 27.202 12.046C27.3152 12.5122 27.4828 12.9176 27.6993 13.2605C28.7359 14.903 30.7468 14.5496 31.757 13.1548C32.0693 12.7238 32.1168 12.569 32.1168 12.569C32.2642 13.8859 33.3248 14.346 33.9319 14.346C34.612 14.346 35.3141 14.0245 35.8063 12.9165C35.8639 13.0368 35.927 13.1517 35.9957 13.2605C37.0323 14.903 39.0434 14.5496 40.0535 13.1548C40.1012 13.0893 40.1426 13.0301 40.1786 12.9767L40.2082 13.8417L39.2782 14.6948C37.7193 16.1235 36.5352 17.2071 36.4481 18.4691C36.3371 20.0783 37.6415 20.6764 38.6297 20.7548C39.6772 20.8379 40.576 20.2587 41.1275 19.4482C41.613 18.7346 41.9308 17.199 41.9074 15.6824C41.8982 15.075 41.8827 14.3028 41.8708 13.475C42.4181 12.8396 43.0346 12.0363 43.6023 11.0963C44.2209 10.0717 44.8839 8.69585 45.2234 7.62503C45.2234 7.62503 45.7994 7.6301 46.4142 7.58983C46.6108 7.57695 46.6674 7.61722 46.6309 7.7612C46.5871 7.93544 45.8542 10.7619 46.5231 12.6448C46.9808 13.9338 48.0127 14.3483 48.6245 14.3483C49.3408 14.3483 50.0259 13.8075 50.393 13.0045C50.4374 13.0939 50.4835 13.1805 50.5341 13.2606C51.5707 14.9031 53.5746 14.5474 54.5919 13.1548C54.8215 12.8405 54.9517 12.569 54.9517 12.569C55.17 13.932 56.23 14.353 56.8371 14.353C57.4694 14.353 58.0697 14.0937 58.5565 12.9415C58.5771 13.4489 58.609 13.8637 58.6596 13.9943C58.6904 14.0745 58.8701 14.1748 59.0008 14.2233C59.5794 14.4378 60.1693 14.3364 60.3876 14.2923C60.5389 14.2616 60.6568 14.1402 60.673 13.8271C60.7154 13.0045 60.6894 11.6224 60.9387 10.5952C61.3572 8.87147 61.7478 8.20284 61.933 7.87188C62.0367 7.68626 62.1535 7.65572 62.1578 7.85202C62.1665 8.24928 62.1863 9.41544 62.3485 10.9826C62.4676 12.1349 62.6265 12.8161 62.7489 13.0319C63.0979 13.6483 63.5287 13.6775 63.8797 13.6775C64.103 13.6775 64.5698 13.6159 64.528 13.2235C64.5076 13.0323 64.5433 11.8504 64.956 10.1522C65.2254 9.04311 65.6748 8.0412 65.8368 7.67476C65.8967 7.53969 65.9245 7.64613 65.9234 7.66695C65.8893 8.43065 65.8127 10.9287 66.1238 12.295C66.5457 14.1459 67.7657 14.353 68.1909 14.353C69.0986 14.353 69.8409 13.6626 70.0909 11.8459C70.1512 11.4086 70.062 11.0711 69.7948 11.0711Z" fill="#343433"/>
</g>
<defs>
<clipPath id="clip0_13_1888">
<rect width="70.1417" height="20" fill="white" transform="translate(0.0761719 0.875)"/>
</clipPath>
</defs>
</svg>
