<svg width="141" height="16" viewBox="0 0 141 16" fill="none" xmlns="http://www.w3.org/2000/svg">
<path d="M0 15.195V1.195H6.74C8.04667 1.195 9.17333 1.40833 10.12 1.835C11.08 2.26167 11.82 2.875 12.34 3.675C12.86 4.46167 13.12 5.395 13.12 6.475C13.12 7.555 12.86 8.48833 12.34 9.275C11.82 10.0617 11.08 10.675 10.12 11.115C9.17333 11.5417 8.04667 11.755 6.74 11.755H2.62L4.72 9.735V15.195H0ZM4.72 10.255L2.62 8.115H6.44C7.09333 8.115 7.57333 7.96833 7.88 7.675C8.2 7.38167 8.36 6.98167 8.36 6.475C8.36 5.96833 8.2 5.56833 7.88 5.275C7.57333 4.98167 7.09333 4.835 6.44 4.835H2.62L4.72 2.695V10.255Z" fill="#5242FF"/>
<path d="M16.668 15.195V1.195H21.388V15.195H16.668Z" fill="#5242FF"/>
<path d="M25.6602 15.195V1.195H29.5402L36.6602 9.715H34.8602V1.195H39.4602V15.195H35.5802L28.4602 6.675H30.2602V15.195H25.6602Z" fill="#5242FF"/>
<path d="M47.9544 12.195L47.6944 7.015L52.9744 1.195H58.1144L52.1944 7.715L49.5744 10.395L47.9544 12.195ZM43.7344 15.195V1.195H48.3744V15.195H43.7344ZM52.9344 15.195L48.8144 9.755L51.8744 6.515L58.3944 15.195H52.9344Z" fill="#5242FF"/>
<path d="M65.9544 15.515C64.781 15.515 63.6477 15.3817 62.5544 15.115C61.461 14.8483 60.561 14.5017 59.8544 14.075L61.3744 10.635C62.041 11.0217 62.781 11.335 63.5944 11.575C64.421 11.8017 65.221 11.915 65.9944 11.915C66.4477 11.915 66.801 11.8883 67.0544 11.835C67.321 11.7683 67.5144 11.6817 67.6344 11.575C67.7544 11.455 67.8144 11.315 67.8144 11.155C67.8144 10.9017 67.6744 10.7017 67.3944 10.555C67.1144 10.4083 66.741 10.2883 66.2744 10.195C65.821 10.0883 65.321 9.98167 64.7744 9.875C64.2277 9.755 63.6744 9.60167 63.1144 9.415C62.5677 9.22833 62.061 8.98167 61.5944 8.675C61.141 8.36833 60.7744 7.96833 60.4944 7.475C60.2144 6.96833 60.0744 6.34167 60.0744 5.595C60.0744 4.72833 60.3144 3.94167 60.7944 3.235C61.2877 2.515 62.0144 1.94167 62.9744 1.515C63.9477 1.08833 65.1544 0.875 66.5944 0.875C67.541 0.875 68.4744 0.975 69.3944 1.175C70.3144 1.375 71.141 1.68167 71.8744 2.095L70.4544 5.515C69.761 5.16833 69.0877 4.90833 68.4344 4.735C67.7944 4.56167 67.1677 4.475 66.5544 4.475C66.101 4.475 65.741 4.515 65.4744 4.595C65.2077 4.675 65.0144 4.78167 64.8944 4.915C64.7877 5.04833 64.7344 5.195 64.7344 5.355C64.7344 5.595 64.8744 5.78833 65.1544 5.935C65.4344 6.06833 65.801 6.18167 66.2544 6.275C66.721 6.36833 67.2277 6.46833 67.7744 6.575C68.3344 6.68167 68.8877 6.82833 69.4344 7.015C69.981 7.20167 70.481 7.44833 70.9344 7.755C71.401 8.06167 71.7744 8.46167 72.0544 8.955C72.3344 9.44833 72.4744 10.0617 72.4744 10.795C72.4744 11.6483 72.2277 12.435 71.7344 13.155C71.2544 13.8617 70.5344 14.435 69.5744 14.875C68.6144 15.3017 67.4077 15.515 65.9544 15.515Z" fill="#5242FF"/>
<path d="M83.1189 15.515C81.9989 15.515 80.9589 15.3417 79.9989 14.995C79.0522 14.635 78.2256 14.1283 77.5189 13.475C76.8256 12.8217 76.2856 12.0483 75.8989 11.155C75.5122 10.2617 75.3189 9.275 75.3189 8.195C75.3189 7.115 75.5122 6.12833 75.8989 5.235C76.2856 4.34167 76.8256 3.56833 77.5189 2.915C78.2256 2.26167 79.0522 1.76167 79.9989 1.415C80.9589 1.055 81.9989 0.875 83.1189 0.875C84.4922 0.875 85.7056 1.115 86.7589 1.595C87.8256 2.075 88.7056 2.76833 89.3989 3.675L86.4189 6.335C86.0056 5.815 85.5456 5.415 85.0389 5.135C84.5456 4.84167 83.9856 4.695 83.3589 4.695C82.8656 4.695 82.4189 4.775 82.0189 4.935C81.6189 5.095 81.2722 5.32833 80.9789 5.635C80.6989 5.94167 80.4789 6.315 80.3189 6.755C80.1589 7.18167 80.0789 7.66167 80.0789 8.195C80.0789 8.72833 80.1589 9.215 80.3189 9.655C80.4789 10.0817 80.6989 10.4483 80.9789 10.755C81.2722 11.0617 81.6189 11.295 82.0189 11.455C82.4189 11.615 82.8656 11.695 83.3589 11.695C83.9856 11.695 84.5456 11.555 85.0389 11.275C85.5456 10.9817 86.0056 10.575 86.4189 10.055L89.3989 12.715C88.7056 13.6083 87.8256 14.3017 86.7589 14.795C85.7056 15.275 84.4922 15.515 83.1189 15.515Z" fill="#5242FF"/>
<path d="M92.7617 15.195V1.195H99.5017C100.808 1.195 101.935 1.40833 102.882 1.835C103.842 2.26167 104.582 2.875 105.102 3.675C105.622 4.46167 105.882 5.395 105.882 6.475C105.882 7.555 105.622 8.48833 105.102 9.275C104.582 10.0483 103.842 10.6417 102.882 11.055C101.935 11.4683 100.808 11.675 99.5017 11.675H95.3817L97.4817 9.735V15.195H92.7617ZM101.142 15.195L97.7017 10.095H102.702L106.182 15.195H101.142ZM97.4817 10.255L95.3817 8.115H99.2017C99.8551 8.115 100.335 7.96833 100.642 7.675C100.962 7.38167 101.122 6.98167 101.122 6.475C101.122 5.96833 100.962 5.56833 100.642 5.275C100.335 4.98167 99.8551 4.835 99.2017 4.835H95.3817L97.4817 2.695V10.255Z" fill="#5242FF"/>
<path d="M108.144 15.195L114.264 1.195H118.904L125.024 15.195H120.144L115.624 3.435H117.464L112.944 15.195H108.144ZM111.784 12.755L112.984 9.355H119.424L120.624 12.755H111.784Z" fill="#5242FF"/>
<path d="M127.777 15.195V1.195H134.517C135.824 1.195 136.951 1.40833 137.897 1.835C138.857 2.26167 139.597 2.875 140.117 3.675C140.637 4.46167 140.897 5.395 140.897 6.475C140.897 7.555 140.637 8.48833 140.117 9.275C139.597 10.0617 138.857 10.675 137.897 11.115C136.951 11.5417 135.824 11.755 134.517 11.755H130.397L132.497 9.735V15.195H127.777ZM132.497 10.255L130.397 8.115H134.217C134.871 8.115 135.351 7.96833 135.657 7.675C135.977 7.38167 136.137 6.98167 136.137 6.475C136.137 5.96833 135.977 5.56833 135.657 5.275C135.351 4.98167 134.871 4.835 134.217 4.835H130.397L132.497 2.695V10.255Z" fill="#5242FF"/>
</svg>
