<svg width="83" height="17" viewBox="0 0 83 17" fill="none" xmlns="http://www.w3.org/2000/svg">
<g clip-path="url(#clip0_13_1892)">
<path d="M13.8002 0.875C15.261 1.12777 16.6816 1.57421 18.0245 2.20252C20.3419 5.66332 21.4933 9.56652 21.0682 14.0686C19.295 15.3944 17.5752 16.1987 15.8842 16.7251C15.4641 16.1479 15.0929 15.5367 14.7746 14.8977C15.3823 14.6665 15.9681 14.3813 16.525 14.0456C16.3793 13.9363 16.2365 13.8233 16.0966 13.7067C12.7678 15.2827 9.1072 15.2827 5.73824 13.7067C5.59968 13.8235 5.45632 13.9371 5.30976 14.0456C5.86576 14.3804 6.45054 14.665 7.05712 14.896C6.73852 15.5348 6.36738 16.1461 5.94752 16.7235C4.25808 16.1971 2.53984 15.3928 0.766724 14.0686C0.404164 10.1851 1.1288 6.24556 3.80224 2.20572C5.14574 1.5754 6.56761 1.12785 8.02992 0.875C8.21344 1.20396 8.43088 1.64652 8.57744 1.99852C10.1235 1.76172 11.684 1.76172 13.259 1.99852C13.4204 1.61516 13.601 1.24018 13.8002 0.875ZM54.4294 5.94492C55.5566 5.94492 56.4923 6.18652 57.2365 6.6702V8.7774C56.9741 8.59308 56.6678 8.44348 56.3184 8.32828C55.969 8.21308 55.5952 8.15548 55.1958 8.15548C54.497 8.15548 53.951 8.28556 53.5565 8.547C53.1618 8.8086 52.964 9.14908 52.964 9.5718C52.964 9.9862 53.1554 10.3252 53.5387 10.5916C53.9222 10.8564 54.4776 10.9897 55.2072 10.9897C55.5824 10.9897 55.9528 10.9337 56.3184 10.8236C56.6824 10.7116 56.9965 10.5752 57.2589 10.414V12.452C56.4328 12.9587 55.4746 13.212 54.3842 13.212C53.4664 13.2088 52.6835 13.0475 52.0378 12.7251C51.3922 12.4027 50.904 11.9651 50.5787 11.4124C50.2534 10.8598 50.0891 10.238 50.0891 9.54716C50.0891 8.85628 50.2582 8.23788 50.5963 7.6934C50.9346 7.14892 51.4306 6.72124 52.0846 6.4102C52.7382 6.09948 53.5194 5.94492 54.4294 5.94492ZM45.9627 5.94332C46.5939 5.94332 47.1722 6.01228 47.699 6.15052C48.2254 6.28876 48.6603 6.46476 49.0067 6.68012V8.48796C48.6522 8.27244 48.2462 8.103 47.7827 7.97468C47.3176 7.84788 46.8376 7.78427 46.3555 7.78556C45.6486 7.78556 45.2962 7.90876 45.2962 8.15404C45.2962 8.26924 45.3509 8.35468 45.4603 8.41228C45.5698 8.46988 45.771 8.52908 46.0626 8.59148L47.1898 8.79884C47.9261 8.92876 48.475 9.15724 48.8357 9.483C49.1966 9.80876 49.3768 10.2907 49.3768 10.9289C49.3768 11.6281 49.0792 12.1824 48.4814 12.5936C47.884 13.0048 47.0368 13.2104 45.9386 13.2104C45.2926 13.2088 44.665 13.1281 44.056 12.9668C43.4472 12.8057 42.8979 12.5721 42.4101 12.2644V10.3534C42.7789 10.6446 43.2733 10.8846 43.8933 11.0739C44.5133 11.2614 45.1125 11.3552 45.6922 11.3552C45.9626 11.3552 46.1674 11.3188 46.3058 11.2465C46.4443 11.1742 46.5138 11.087 46.5138 10.9867C46.5138 10.8715 46.4766 10.7761 46.4008 10.6987C46.3251 10.6214 46.1784 10.5572 45.9613 10.503L44.6085 10.1921C43.8338 10.008 43.2845 9.75292 42.9578 9.42572C42.6307 9.09996 42.468 8.67228 42.468 8.14252C42.468 7.69692 42.6098 7.31036 42.8965 6.97964C43.1814 6.64908 43.5874 6.39404 44.1139 6.21484C44.6406 6.03404 45.2557 5.94332 45.9627 5.94332ZM82.5997 4.68828V12.9784H79.8376V11.4702C79.604 12.0377 79.2498 12.4702 78.7731 12.7664C78.2963 13.0608 77.7069 13.2089 77.008 13.2089C76.3832 13.2089 75.839 13.0542 75.3733 12.7433C74.908 12.4324 74.549 12.0065 74.2962 11.4652C74.045 10.9241 73.9174 10.3123 73.9174 9.62796C73.9094 8.92236 74.0432 8.28908 74.3186 7.72812C74.5925 7.16716 74.9803 6.72972 75.4797 6.41548C75.9789 6.1014 76.5491 5.94348 77.1885 5.94348C78.4816 5.94348 79.3562 6.50732 79.8138 7.63372L79.8374 7.6934V4.68828H82.5997ZM62.3544 5.94156C63.2483 5.94156 64.0195 6.09452 64.6654 6.4022C65.3112 6.70972 65.8042 7.13084 66.1422 7.66876C66.4806 8.20668 66.6494 8.82348 66.6494 9.52252C66.6494 10.2134 66.4806 10.8385 66.1422 11.3993C65.8042 11.9603 65.3096 12.4009 64.659 12.7235C64.0083 13.0459 63.2402 13.207 62.353 13.207C61.4654 13.207 60.6973 13.0475 60.0483 12.7251C59.3976 12.4027 58.9018 11.9619 58.5602 11.4009C58.2189 10.8401 58.0466 10.215 58.0466 9.52412C58.0466 8.8334 58.2171 8.21644 58.5602 7.67532C58.903 7.1342 59.396 6.70972 60.0434 6.4022C60.6891 6.09452 61.4606 5.94156 62.3544 5.94156ZM41.1768 7.82988V13.0145H38.4232V7.82988C39.2669 8.20156 40.3138 8.21804 41.1768 7.82988ZM72.3973 6.09292C72.795 6.09292 73.1365 6.18508 73.4232 6.36924V8.85628C73.1366 8.6638 72.7661 8.56844 72.3072 8.56844C71.7062 8.56844 71.2426 8.75436 70.9203 9.12604C70.5968 9.49788 70.4355 10.0768 70.4355 10.8598V12.9784H67.6738V6.24268H70.3793V8.38428C70.5291 7.60124 70.7725 7.02396 71.1074 6.65052C71.4408 6.27884 71.8722 6.09292 72.3973 6.09292ZM32.5909 4.91852C33.6507 4.91852 34.5461 5.08796 35.2805 5.42508C36.0133 5.76236 36.5626 6.23276 36.9266 6.83468C37.2902 7.43676 37.4738 8.12588 37.4738 8.90236C37.4738 9.66236 37.2838 10.3515 36.9038 10.9683C36.5237 11.5868 35.9454 12.0755 35.1678 12.4355C34.3901 12.7958 33.4267 12.9768 32.2754 12.9768H28.1944V4.91852H32.5909ZM7.51616 7.49068C6.48704 7.49068 5.67536 8.4366 5.67536 9.58636C5.67536 10.7361 6.5048 11.6803 7.51616 11.6803C8.54528 11.6803 9.35856 10.7361 9.35696 9.58636C9.37456 8.43484 8.54528 7.49068 7.51616 7.49068ZM14.3187 7.49068C13.2896 7.49068 12.4779 8.4366 12.4779 9.58636C12.4779 10.7361 13.3074 11.6803 14.3187 11.6803C15.3478 11.6803 16.1595 10.7361 16.1595 9.58636C16.1771 8.43484 15.3478 7.49068 14.3187 7.49068ZM62.353 8.06348C61.8714 8.06348 61.4944 8.19996 61.219 8.47308C60.9454 8.7462 60.8083 9.11132 60.8083 9.57196C60.8083 10.0324 60.9453 10.4025 61.219 10.6822C61.493 10.9619 61.8712 11.1033 62.353 11.1033C62.8261 11.1017 63.2 10.9619 63.4736 10.6822C63.7477 10.4025 63.8859 10.0326 63.8859 9.5718C63.8859 9.11132 63.749 8.7446 63.4736 8.47308C63.2 8.19996 62.8261 8.06348 62.353 8.06348ZM78.3157 8.09804C77.8502 8.09804 77.4784 8.23452 77.1997 8.50764C76.921 8.78076 76.7826 9.13436 76.7826 9.57196C76.7826 10.0094 76.921 10.3664 77.1997 10.6427C77.4784 10.919 77.8456 11.0571 78.3045 11.0571C78.7698 11.0555 79.1434 10.9158 79.4254 10.6363C79.7074 10.3564 79.8474 9.99308 79.8474 9.54892C79.8474 9.11948 79.7104 8.76924 79.4366 8.50092C79.1627 8.23292 78.7875 8.09804 78.3157 8.09804ZM32.3896 6.96796H31.0142V10.9289H32.2302C32.9438 10.9289 33.493 10.7464 33.8762 10.3828C34.2595 10.0176 34.4512 9.52092 34.4512 8.89084C34.4512 8.30684 34.2803 7.8414 33.939 7.49276C33.5976 7.14396 33.0806 6.96796 32.3896 6.96796ZM39.8013 4.4334C40.5616 4.4334 41.1782 4.99884 41.1782 5.6966C41.1782 6.3942 40.5616 6.95996 39.8013 6.95996C39.0406 6.95996 38.4242 6.39436 38.4242 5.6966C38.4242 4.999 39.0406 4.4334 39.8013 4.4334Z" fill="#5865F2"/>
</g>
<defs>
<clipPath id="clip0_13_1892">
<rect width="81.92" height="16" fill="white" transform="translate(0.679688 0.875)"/>
</clipPath>
</defs>
</svg>
