<svg width="24" height="24" viewBox="0 0 24 24" fill="none" xmlns="http://www.w3.org/2000/svg">
<path d="M14 11.998C14 9.506 11.683 7 8.857 7H7.143C4.303 7 2 9.238 2 11.998C2 14.376 3.71 16.366 6 16.871C6.37538 16.9537 6.75863 16.9952 7.143 16.995M16.857 7C17.25 7 17.632 7.043 18 7.124C20.29 7.629 22 9.619 22 11.998C21.9988 12.6874 21.8527 13.3688 21.5712 13.9981C21.2897 14.6274 20.8791 15.1906 20.366 15.651" stroke="#CCCCCC" stroke-width="1.5" stroke-linecap="round" stroke-linejoin="round"/>
<path d="M10 12C10 14.491 12.317 16.997 15.143 16.997M18 22.245L20.121 20.123M20.121 20.123L22.243 18.002M20.121 20.123L18 18.002M20.121 20.123L22.243 22.245" stroke="#CCCCCC" stroke-width="1.5" stroke-linecap="round" stroke-linejoin="round"/>
</svg>
