<svg width="104" height="20" viewBox="0 0 104 20" fill="none" xmlns="http://www.w3.org/2000/svg">
<path d="M1.01498 9.79243C1.01453 11.3941 1.43303 12.958 2.2288 14.3365L0.938872 19.0462L5.75871 17.7824C7.09182 18.5082 8.58546 18.8884 10.1033 18.8885H10.1073C15.118 18.8885 19.1968 14.8112 19.199 9.7996C19.1999 7.37113 18.255 5.08756 16.5383 3.36952C14.8219 1.65163 12.5392 0.705056 10.1069 0.703948C5.09565 0.703948 1.01705 4.78107 1.01498 9.79243Z" fill="url(#paint0_linear_13_1887)"/>
<path d="M0.690388 9.78947C0.689871 11.4488 1.12337 13.0686 1.94751 14.4964L0.611328 19.375L5.60399 18.0659C6.97963 18.816 8.52847 19.2114 10.1045 19.212H10.1086C15.299 19.212 19.5244 14.988 19.5266 9.79701C19.5275 7.28128 18.5486 4.91562 16.7706 3.13604C14.9923 1.35667 12.6279 0.376034 10.1086 0.375C4.91721 0.375 0.692457 4.59842 0.690388 9.78947ZM3.66363 14.2505L3.47721 13.9546C2.69356 12.7086 2.27993 11.2686 2.28053 9.79007C2.28222 5.47539 5.79366 1.96506 10.1115 1.96506C12.2025 1.96595 14.1677 2.78108 15.6457 4.26002C17.1237 5.7391 17.937 7.70525 17.9364 9.79642C17.9345 14.1111 14.423 17.6219 10.1086 17.6219H10.1055C8.70063 17.6211 7.32284 17.2439 6.12128 16.5309L5.83534 16.3613L2.87259 17.1381L3.66363 14.2505Z" fill="url(#paint1_linear_13_1887)"/>
<path d="M7.75464 5.85363C7.57835 5.4618 7.39281 5.45389 7.22516 5.44702C7.08788 5.44111 6.93094 5.44155 6.77415 5.44155C6.61722 5.44155 6.36223 5.50059 6.1467 5.73592C5.93095 5.97148 5.323 6.54071 5.323 7.69845C5.323 8.85627 6.16628 9.97515 6.28383 10.1323C6.40154 10.2892 7.9118 12.7411 10.3037 13.6843C12.2916 14.4682 12.6961 14.3123 13.1275 14.273C13.559 14.2338 14.5199 13.7039 14.7159 13.1544C14.9121 12.605 14.9121 12.134 14.8533 12.0356C14.7944 11.9375 14.6375 11.8786 14.4022 11.761C14.1668 11.6433 13.0098 11.074 12.7942 10.9955C12.5784 10.917 12.4215 10.8778 12.2646 11.1135C12.1077 11.3487 11.657 11.8786 11.5197 12.0356C11.3825 12.1929 11.2451 12.2125 11.0098 12.0948C10.7744 11.9767 10.0165 11.7285 9.11735 10.9269C8.41779 10.3031 7.94549 9.53286 7.80821 9.29724C7.67093 9.06198 7.79351 8.93445 7.91151 8.81719C8.01724 8.71175 8.14691 8.5424 8.26469 8.40504C8.38202 8.26761 8.42118 8.16956 8.49965 8.01262C8.5782 7.85554 8.53889 7.71811 8.48015 7.6004C8.42118 7.4827 7.96389 6.3189 7.75464 5.85363Z" fill="white"/>
<path d="M40.8796 4.0464L37.5047 14.0015H35.6125L33.3814 7.53422L31.1504 14.0015H29.2582L25.8833 4.0464H28.2132L30.2608 10.7396L32.4777 4.01816H34.3417L36.5586 10.7396L38.6061 4.0464H40.8796Z" fill="#A39F9F"/>
<path d="M49.9037 13.9309H47.7574V9.70882C47.7574 8.69213 47.2773 8.16966 46.4583 8.16966C45.6393 8.16966 45.1168 8.69213 45.1168 9.70882V13.9309H42.9704V3.62277H45.1168V7.43538C45.611 6.79995 46.2465 6.22099 47.3338 6.22099C48.9576 6.22099 49.9037 7.29417 49.9037 9.03102V13.9309Z" fill="#A39F9F"/>
<path d="M58.984 13.9309H56.9083V13.1119C56.3858 13.6909 55.6657 14.0721 54.6207 14.0721C53.1945 14.0721 52.0225 13.2531 52.0225 11.7563V11.7281C52.0225 10.076 53.2793 9.31344 55.0726 9.31344C55.8351 9.31344 56.3858 9.44053 56.9224 9.6241V9.49701C56.9224 8.6074 56.3717 8.11318 55.2985 8.11318C54.4795 8.11318 53.9006 8.2685 53.2086 8.52268L52.6721 6.88467C53.5052 6.51753 54.3242 6.27748 55.6092 6.27748C57.9532 6.27748 58.984 7.49186 58.984 9.53937V13.9309ZM56.9506 11.2621V10.8808C56.5835 10.7114 56.1034 10.5984 55.5809 10.5984C54.6631 10.5984 54.0983 10.9656 54.0983 11.6434V11.6716C54.0983 12.2506 54.5784 12.5895 55.2703 12.5895C56.2729 12.5895 56.9506 12.0387 56.9506 11.2621Z" fill="#A39F9F"/>
<path d="M65.7184 13.6203C65.2666 13.8886 64.7441 14.058 64.0239 14.058C62.7107 14.058 61.8211 13.5355 61.8211 11.7846V8.1979H60.9174V6.3622H61.8211V4.42766H63.9675V6.3622H65.7467V8.1979H63.9675V11.4316C63.9675 11.9258 64.1793 12.1658 64.6594 12.1658C65.0547 12.1658 65.4078 12.067 65.7184 11.8975V13.6203Z" fill="#A39F9F"/>
<path d="M73.5842 11.6292C73.5842 13.3096 72.3275 14.0721 70.6895 14.0721C69.6304 14.0721 68.4443 13.7191 67.4417 12.9284L68.3596 11.5163C69.1786 12.1094 70.0399 12.42 70.746 12.42C71.3673 12.42 71.6497 12.1941 71.6497 11.8552V11.8269C71.6497 11.361 70.9154 11.2056 70.0823 10.9514C69.0232 10.6408 67.823 10.1466 67.823 8.67801V8.64977C67.823 7.1106 69.0656 6.24924 70.5906 6.24924C71.5509 6.24924 72.5958 6.57401 73.4148 7.12472L72.5958 8.6074C71.8474 8.16966 71.099 7.90136 70.5483 7.90136C70.0258 7.90136 69.7575 8.1273 69.7575 8.42383V8.45207C69.7575 8.8757 70.4777 9.07339 71.2967 9.3558C72.3557 9.70882 73.5842 10.2172 73.5842 11.601V11.6292Z" fill="#A39F9F"/>
<path d="M82.3385 13.9309H80.2627V13.1119C79.7402 13.6909 79.0201 14.0721 77.9751 14.0721C76.5489 14.0721 75.3769 13.2531 75.3769 11.7563V11.7281C75.3769 10.076 76.6337 9.31344 78.427 9.31344C79.1895 9.31344 79.7402 9.44053 80.2768 9.6241V9.49701C80.2768 8.6074 79.7261 8.11318 78.6529 8.11318C77.8339 8.11318 77.255 8.2685 76.5631 8.52268L76.0265 6.88467C76.8596 6.51753 77.6786 6.27748 78.9636 6.27748C81.3076 6.27748 82.3385 7.49186 82.3385 9.53937V13.9309ZM80.3051 11.2621V10.8808C79.9379 10.7114 79.4578 10.5984 78.9353 10.5984C78.0175 10.5984 77.4527 10.9656 77.4527 11.6434V11.6716C77.4527 12.2506 77.9328 12.5895 78.6247 12.5895C79.6273 12.5895 80.3051 12.0387 80.3051 11.2621Z" fill="#A39F9F"/>
<path d="M92.8414 10.1607C92.8414 12.6883 91.1893 14.0721 89.396 14.0721C88.2522 14.0721 87.5461 13.5497 87.0378 12.9425V16.1903H84.8914V6.3622H87.0378V7.4495C87.5603 6.74346 88.2804 6.22099 89.396 6.22099C91.1611 6.22099 92.8414 7.60483 92.8414 10.1324V10.1607ZM90.6951 10.1607V10.1324C90.6951 8.8757 89.8478 8.04257 88.8453 8.04257C87.8427 8.04257 87.0096 8.8757 87.0096 10.1324V10.1607C87.0096 11.4174 87.8427 12.2506 88.8453 12.2506C89.8478 12.2506 90.6951 11.4316 90.6951 10.1607Z" fill="#A39F9F"/>
<path d="M103.076 10.1607C103.076 12.6883 101.424 14.0721 99.6308 14.0721C98.487 14.0721 97.7809 13.5497 97.2726 12.9425V16.1903H95.1262V6.3622H97.2726V7.4495C97.7951 6.74346 98.5152 6.22099 99.6308 6.22099C101.396 6.22099 103.076 7.60483 103.076 10.1324V10.1607ZM100.93 10.1607V10.1324C100.93 8.8757 100.083 8.04257 99.08 8.04257C98.0775 8.04257 97.2444 8.8757 97.2444 10.1324V10.1607C97.2444 11.4174 98.0775 12.2506 99.08 12.2506C100.083 12.2506 100.93 11.4316 100.93 10.1607Z" fill="#A39F9F"/>
<defs>
<linearGradient id="paint0_linear_13_1887" x1="5123.86" y1="1900.38" x2="5123.86" y2="0.375" gradientUnits="userSpaceOnUse">
<stop stop-color="#1FAF38"/>
<stop offset="1" stop-color="#60D669"/>
</linearGradient>
<linearGradient id="paint1_linear_13_1887" x1="5123.86" y1="1900.38" x2="5123.86" y2="0.375" gradientUnits="userSpaceOnUse">
<stop stop-color="#F9F9F9"/>
<stop offset="1" stop-color="white"/>
</linearGradient>
</defs>
</svg>
